# Blender v2.83.0 OBJ File: 'apple.blend'
# www.blender.org
mtllib apple.mtl
o Apple.008_Sphere.009
v 21.038591 16.736855 -2.393396
v 21.024471 16.394367 -2.783027
v 21.008898 16.049950 -2.640219
v 21.128626 16.732784 -2.327916
v 21.487713 16.373421 -2.446119
v 21.336458 16.035137 -2.401989
v 21.094236 16.734339 -2.221967
v 21.310770 16.381422 -1.900989
v 21.211342 16.040794 -2.016524
v 21.039753 16.662745 -2.311430
v 20.982948 16.739372 -2.221967
v 20.738173 16.407312 -1.900989
v 20.806454 16.059103 -2.016524
v 20.948559 16.740927 -2.327916
v 20.561230 16.415314 -2.446119
v 20.681335 16.064760 -2.401989
v 21.018246 15.975827 -2.300992
v 21.041527 16.755672 -2.530071
v 21.254679 16.746033 -2.375048
v 21.173264 16.749716 -2.124217
v 20.909792 16.761629 -2.124217
v 20.828375 16.765310 -2.375048
v 21.038591 16.736855 -2.393396
v 21.128626 16.732784 -2.327916
v 21.094236 16.734339 -2.221967
v 20.982948 16.739372 -2.221967
v 20.948559 16.740927 -2.327916
v 21.034803 16.688580 -2.685514
v 21.400610 16.672037 -2.419468
v 21.260885 16.678356 -1.988997
v 20.808723 16.698801 -1.988997
v 20.668997 16.705120 -2.419468
v 21.041199 16.807182 -2.354791
v 21.095325 16.814631 -2.317132
v 21.075794 16.819571 -2.253907
v 21.009598 16.815174 -2.252491
v 20.988218 16.807518 -2.314840
v 21.041199 16.807182 -2.354791
v 21.095325 16.814631 -2.317132
v 21.075794 16.819571 -2.253907
v 21.009598 16.815174 -2.252491
v 20.988218 16.807518 -2.314840
v 21.033958 16.870913 -2.350852
v 21.066290 16.884424 -2.330133
v 21.054659 16.891264 -2.291727
v 21.015139 16.881981 -2.288709
v 21.002346 16.869402 -2.325251
v 21.033958 16.870913 -2.350852
v 21.066290 16.884424 -2.330133
v 21.054659 16.891264 -2.291727
v 21.015139 16.881981 -2.288709
v 21.002346 16.869402 -2.325251
v 21.024145 16.932758 -2.358244
v 21.043808 16.945417 -2.346622
v 21.036234 16.951597 -2.322406
v 21.011890 16.942757 -2.319062
v 21.004419 16.931114 -2.341211
v 21.024145 16.932758 -2.358244
v 21.043808 16.945417 -2.346622
v 21.036234 16.951597 -2.322406
v 21.011890 16.942757 -2.319062
v 21.004419 16.931114 -2.341211
v 21.027260 16.946091 -2.349701
vt 0.600000 0.750000
vt 0.800000 0.750000
vt 0.800000 0.750000
vt 0.000000 0.000000
vt 0.000000 0.000000
vt 0.000000 0.000000
vt 0.400000 0.750000
vt 0.600000 0.750000
vt 1.000000 0.750000
vt 1.000000 0.750000
vt 0.200000 0.750000
vt 0.000000 0.750000
vt 0.200000 0.750000
vt 0.400000 0.750000
vt 0.600000 0.750000
vt 1.000000 0.750000
vt 0.000000 0.000000
vt 0.000000 0.000000
vt 0.000000 0.000000
vt 0.000000 0.000000
vt 0.000000 0.000000
vt 0.000000 0.000000
vt 0.000000 0.750000
vt 0.200000 0.750000
vt 0.000000 0.000000
vt 0.000000 0.000000
vt 0.000000 0.000000
vt 0.400000 0.750000
vt 0.000000 0.000000
vt 0.800000 0.750000
vt 0.800000 0.750000
vt 0.000000 0.000000
vt 0.000000 0.000000
vt 0.600000 0.750000
vt 1.000000 0.750000
vt 0.000000 0.000000
vt 0.000000 0.000000
vt 0.000000 0.000000
vt 0.200000 0.750000
vt 0.400000 0.750000
vt 0.200000 0.750000
vt 0.800000 0.750000
vt 0.000000 0.000000
vt 0.600000 0.750000
vt 1.000000 0.750000
vt 0.000000 0.000000
vt 0.000000 0.000000
vt 0.000000 0.750000
vt 0.000000 0.750000
vt 0.500000 0.000000
vt 0.600000 0.250000
vt 0.400000 0.250000
vt 0.400000 0.706997
vt 0.600000 0.706997
vt 0.600000 0.500000
vt 0.500000 1.000000
vt 0.400000 0.500000
vt 0.200000 0.250000
vt 0.300000 1.000000
vt 0.300000 0.000000
vt 0.200000 0.706997
vt 0.000000 0.706997
vt 0.000000 0.500000
vt 0.000000 0.250000
vt 0.100000 1.000000
vt 0.100000 0.000000
vt 0.900000 0.000000
vt 1.000000 0.250000
vt 0.800000 0.250000
vt 1.000000 0.706997
vt 0.800000 0.706997
vt 1.000000 0.500000
vt 0.900000 1.000000
vt 0.700000 0.000000
vt 0.800000 0.500000
vt 0.700000 1.000000
vt 0.600000 0.679530
vt 0.800000 0.679530
vt 1.000000 0.679530
vt 0.200000 0.679530
vt 0.000000 0.679530
vt 0.400000 0.679530
vt 0.200000 0.500000
vn 0.5122 -0.4488 0.7322
vn 0.0167 0.3684 0.9295
vn -0.5542 -0.3846 0.7382
vn 0.8773 -0.4093 -0.2506
vn 0.0032 -0.3503 -0.9366
vn -0.5032 -0.1101 0.8571
vn 0.9281 -0.2339 -0.2895
vn -0.8915 -0.4077 -0.1974
vn -0.6285 -0.0233 -0.7775
vn 0.0395 -0.4571 -0.8885
vn -0.8477 0.4496 0.2817
vn 0.5128 0.3139 -0.7991
vn 0.9188 0.2965 0.2607
vn -0.5450 0.4189 -0.7263
vn -0.8998 -0.3283 -0.2873
vn 0.6141 0.1782 0.7688
vn -0.0362 0.4450 0.8948
vn -0.5436 0.0140 0.8392
vn 0.9569 -0.0872 -0.2770
vn -0.9048 -0.3836 -0.1851
vn -0.0129 0.4774 0.8786
vn 0.6021 -0.0031 0.7984
vn 0.8878 0.3903 0.2438
vn -0.9368 0.2543 0.2404
vn 0.5618 0.0804 -0.8234
vn 0.0809 0.9715 -0.2226
vn 0.5785 -0.5315 0.6188
vn -0.3494 0.9341 -0.0736
vn -0.1779 -0.5010 0.8470
vn 0.5896 -0.7796 0.2110
vn 0.9019 0.3799 0.2055
vn -0.9493 0.1082 0.2951
vn 0.5256 -0.0361 -0.8500
vn 0.0381 -0.4436 -0.8954
vn -0.6325 -0.1901 -0.7509
vn -0.5896 0.7797 -0.2110
vn 0.1779 0.5010 -0.8470
vn 0.3494 -0.9341 0.0736
vn -0.5785 0.5315 -0.6188
vn -0.0809 -0.9716 0.2225
vn 0.5450 -0.4189 0.7263
vn -0.0032 0.3503 0.9366
vn -0.5128 -0.3139 0.7991
vn 0.8477 -0.4496 -0.2817
vn -0.0167 -0.3684 -0.9295
vn -0.5618 -0.0804 0.8234
vn 0.9368 -0.2543 -0.2404
vn -0.8878 -0.3903 -0.2438
vn -0.6021 0.0031 -0.7984
vn 0.0129 -0.4774 -0.8786
vn -0.8773 0.4093 0.2506
vn 0.5542 0.3846 -0.7382
vn 0.8998 0.3283 0.2873
vn -0.5122 0.4488 -0.7322
vn -0.9188 -0.2965 -0.2607
vn 0.6325 0.1901 0.7509
vn -0.0381 0.4436 0.8954
vn -0.5256 0.0361 0.8500
vn 0.9493 -0.1082 -0.2951
vn -0.9019 -0.3799 -0.2055
vn -0.0395 0.4571 0.8885
vn 0.6285 0.0233 0.7775
vn 0.8915 0.4077 0.1974
vn -0.9281 0.2339 0.2895
vn 0.5032 0.1101 -0.8571
vn 0.9048 0.3836 0.1851
vn -0.9569 0.0872 0.2770
vn 0.5436 -0.0140 -0.8392
vn 0.0362 -0.4450 -0.8948
vn -0.6141 -0.1782 -0.7688
vn 0.1125 -0.9701 -0.2151
vn -0.0535 0.9894 0.1351
vn 0.5424 -0.3426 -0.7671
vn -0.4156 0.6717 0.6132
vn 0.8865 -0.3582 0.2930
vn -0.6288 0.7472 -0.2150
vn 0.2076 -0.9748 0.0817
vn -0.1247 0.9907 -0.0550
vn 0.0443 0.9808 -0.1901
vn -0.0144 -0.3174 0.9482
vn 0.0348 0.7698 -0.6373
vn -0.0437 -0.9671 0.2506
vn -0.2756 -0.9583 0.0754
vn 0.2200 0.9738 -0.0571
vn -0.9152 -0.2767 0.2930
vn 0.6582 0.7250 -0.2030
vn -0.1921 -0.9599 -0.2044
vn 0.1447 0.9798 0.1380
vn -0.5711 -0.2922 -0.7671
vn 0.4603 0.6617 0.5918
vn -0.2335 0.8964 -0.3768
vn -0.3833 0.9133 0.1378
vn 0.0404 0.8943 0.4457
vn 0.4820 0.8643 0.1438
vn 0.3206 0.8646 -0.3870
vn 0.5783 0.2383 -0.7803
vn 0.9237 0.2430 0.2962
vn 0.0129 0.2861 0.9581
vn -0.9034 0.3086 0.2978
vn -0.5566 0.2789 -0.7826
vn 0.0444 0.9808 -0.1901
vn 0.9237 0.2430 0.2963
usemtl 0.184,0.073,0.001
s off
f 1/1/1 37/2/1 14/3/1
f 25/4/2 41/5/2 26/6/2
f 4/7/3 33/8/3 1/1/3
f 11/9/4 37/2/4 36/10/4
f 7/11/5 36/12/5 35/13/5
f 33/8/6 44/14/6 43/15/6
f 37/2/7 46/16/7 36/10/7
f 39/17/8 50/18/8 49/19/8
f 38/20/9 52/21/9 48/22/9
f 35/13/10 46/23/10 45/24/10
f 26/6/11 42/25/11 27/26/11
f 24/27/12 38/20/12 39/17/12
f 7/11/13 34/28/13 35/13/13
f 23/29/14 42/25/14 38/20/14
f 25/4/15 39/17/15 24/27/15
f 43/15/16 57/30/16 47/31/16
f 50/18/17 61/32/17 51/33/17
f 44/14/18 53/34/18 43/15/18
f 46/16/19 57/30/19 56/35/19
f 49/19/20 60/36/20 59/37/20
f 40/38/21 51/33/21 41/5/21
f 33/8/22 47/31/22 37/2/22
f 34/28/23 45/24/23 35/13/23
f 42/25/24 51/33/24 52/21/24
f 38/20/25 49/19/25 39/17/25
f 55/39/26 54/40/26 63/41/26
f 57/30/27 53/34/27 63/42/27
f 61/32/28 60/36/28 63/43/28
f 53/34/29 54/40/29 63/44/29
f 56/35/30 57/30/30 63/45/30
f 44/14/31 55/39/31 45/24/31
f 51/33/32 62/46/32 52/21/32
f 49/19/33 58/47/33 59/37/33
f 45/24/34 56/48/34 55/39/34
f 48/22/35 62/46/35 58/47/35
f 62/46/36 61/32/36 63/43/36
f 59/37/37 58/47/37 63/43/37
f 55/39/38 56/48/38 63/41/38
f 58/47/39 62/46/39 63/43/39
f 59/37/40 60/36/40 63/43/40
f 1/1/41 33/8/41 37/2/41
f 25/4/42 40/38/42 41/5/42
f 4/7/43 34/28/43 33/8/43
f 11/9/44 14/3/44 37/2/44
f 7/11/45 11/49/45 36/12/45
f 33/8/46 34/28/46 44/14/46
f 37/2/47 47/31/47 46/16/47
f 39/17/48 40/38/48 50/18/48
f 38/20/49 42/25/49 52/21/49
f 35/13/50 36/12/50 46/23/50
f 26/6/51 41/5/51 42/25/51
f 24/27/52 23/29/52 38/20/52
f 7/11/53 4/7/53 34/28/53
f 23/29/54 27/26/54 42/25/54
f 25/4/55 40/38/55 39/17/55
f 43/15/56 53/34/56 57/30/56
f 50/18/57 60/36/57 61/32/57
f 44/14/58 54/40/58 53/34/58
f 46/16/59 47/31/59 57/30/59
f 49/19/60 50/18/60 60/36/60
f 40/38/61 50/18/61 51/33/61
f 33/8/62 43/15/62 47/31/62
f 34/28/63 44/14/63 45/24/63
f 42/25/64 41/5/64 51/33/64
f 38/20/65 48/22/65 49/19/65
f 44/14/66 54/40/66 55/39/66
f 51/33/67 61/32/67 62/46/67
f 49/19/68 48/22/68 58/47/68
f 45/24/69 46/23/69 56/48/69
f 48/22/70 52/21/70 62/46/70
usemtl 0.8,0.019,0.056
f 17/50/71 3/51/71 6/52/71
f 1/1/72 19/53/72 18/54/72
f 2/55/73 6/52/73 3/51/73
f 1/1/74 10/56/74 4/7/74
f 5/57/75 9/58/75 6/52/75
f 4/7/76 10/59/76 7/11/76
f 17/60/77 6/52/77 9/58/77
f 4/7/78 20/61/78 19/53/78
f 7/11/79 21/62/79 20/61/79
f 9/58/80 12/63/80 13/64/80
f 7/11/81 10/65/81 11/49/81
f 17/66/82 9/58/82 13/64/82
f 17/67/83 13/68/83 16/69/83
f 21/70/84 14/3/84 22/71/84
f 12/72/85 16/69/85 13/68/85
f 11/9/86 10/73/86 14/3/86
f 17/74/87 16/69/87 3/51/87
f 22/71/88 1/1/88 18/54/88
f 15/75/89 3/51/89 16/69/89
f 14/3/90 10/76/90 1/1/90
f 22/71/91 28/77/91 32/78/91
f 21/70/92 32/78/92 31/79/92
f 30/80/93 21/62/93 31/81/93
f 29/82/94 20/61/94 30/80/94
f 28/77/95 19/53/95 29/82/95
f 2/55/96 29/82/96 5/57/96
f 5/57/97 30/80/97 8/83/97
f 30/80/98 12/63/98 8/83/98
f 31/79/99 15/75/99 12/72/99
f 32/78/100 2/55/100 15/75/100
f 1/1/72 4/7/72 19/53/72
f 2/55/73 5/57/73 6/52/73
f 5/57/75 8/83/75 9/58/75
f 4/7/78 7/11/78 20/61/78
f 7/11/101 11/49/101 21/62/101
f 9/58/80 8/83/80 12/63/80
f 21/70/84 11/9/84 14/3/84
f 12/72/85 15/75/85 16/69/85
f 22/71/88 14/3/88 1/1/88
f 15/75/89 2/55/89 3/51/89
f 22/71/91 18/54/91 28/77/91
f 21/70/92 22/71/92 32/78/92
f 30/80/93 20/61/93 21/62/93
f 29/82/94 19/53/94 20/61/94
f 28/77/95 18/54/95 19/53/95
f 2/55/96 28/77/96 29/82/96
f 5/57/102 29/82/102 30/80/102
f 30/80/98 31/81/98 12/63/98
f 31/79/99 32/78/99 15/75/99
f 32/78/100 28/77/100 2/55/100
