# Blender v2.83.3 OBJ File: 'rightear.blend'
# www.blender.org
mtllib rightear.mtl
o Plane.001_Plane.002
v -0.040684 1.720730 0.524861
v -0.067114 1.711224 0.531855
v -0.071377 1.690961 0.555337
v -0.032863 1.691930 0.574347
v 0.002137 1.563368 0.494335
v -0.025587 1.583324 0.478962
v -0.015258 1.585448 0.462393
v -0.011162 1.612450 0.461228
v -0.001623 1.636471 0.463402
v 0.026285 1.637940 0.467452
v 0.029620 1.638738 0.470857
v 0.054623 1.620588 0.499946
v 0.041972 1.625203 0.488770
v 0.026222 1.625022 0.479967
v 0.016676 1.615556 0.473046
v -0.009881 1.591337 0.466562
v -0.014314 1.581705 0.474678
v 0.035684 1.617655 0.497023
v 0.002670 1.590731 0.486616
v 0.006712 1.606874 0.475827
v 0.023257 1.610936 0.492633
v -0.007504 1.725615 0.504077
v 0.004786 1.739562 0.518607
v 0.020766 1.727514 0.526070
v 0.016616 1.720689 0.552791
v 0.018437 1.727060 0.541210
v 0.017655 1.720872 0.549734
v -0.034451 1.715186 0.551370
v -0.020644 1.716738 0.547142
v -0.009117 1.714171 0.543986
v -0.001017 1.760673 0.532535
v 0.013105 1.748444 0.517482
v -0.020204 1.754514 0.543666
v -0.039926 1.760021 0.570919
v -0.033526 1.759927 0.547679
v -0.029202 1.750247 0.559251
v -0.064002 1.734064 0.580687
v 0.026097 1.716068 0.523077
v 0.007766 1.726861 0.527391
v -0.010763 1.745088 0.536709
v -0.013797 1.762314 0.557288
v -0.030206 1.772936 0.555380
v -0.056104 1.756668 0.563737
v -0.055743 1.746434 0.588300
v -0.063005 1.788252 0.613351
v -0.041920 1.795541 0.600458
v -0.015407 1.794637 0.578418
v -0.024033 1.769273 0.530681
v -0.027878 1.787684 0.552463
v 0.001689 1.769591 0.550745
v 0.005548 1.754369 0.534756
v -0.000243 1.768514 0.536409
v -0.014128 1.771818 0.538414
v -0.021876 1.750857 0.565976
v 0.001375 1.734774 0.561644
v 0.001590 1.746395 0.550782
v 0.001821 1.750685 0.555977
v 0.019154 1.745474 0.544685
v 0.006738 1.756536 0.551782
v 0.017251 1.740852 0.545091
v 0.020074 1.731298 0.545285
v -0.048561 1.754507 0.557869
v -0.051841 1.771464 0.567401
v -0.064546 1.710813 0.572182
v -0.050745 1.766706 0.567673
v -0.031664 1.780913 0.556226
v -0.055896 1.735184 0.560058
v -0.031212 1.723966 0.570392
v -0.038010 1.752759 0.582252
v -0.044038 1.734150 0.594380
v -0.044479 1.707128 0.584794
v -0.029968 1.725674 0.547633
v -0.032292 1.751794 0.575274
v -0.015984 1.612322 0.500236
v -0.015764 1.640941 0.514110
v -0.013449 1.656057 0.536848
v -0.023898 1.685319 0.538761
v -0.033572 1.679612 0.565811
v -0.031715 1.648884 0.537554
v -0.020913 1.618575 0.535785
v -0.026218 1.589112 0.506204
v -0.030567 1.617277 0.485338
v -0.040860 1.635250 0.512579
v -0.042674 1.663043 0.513473
v -0.047455 1.686640 0.516185
v -0.032164 1.710644 0.499344
v -0.025009 1.672990 0.499494
v -0.040729 1.655713 0.486036
v -0.023261 1.637099 0.474157
v 0.001873 1.622554 0.505160
v -0.003494 1.649459 0.508453
v -0.000544 1.663680 0.532794
v -0.013420 1.692029 0.537741
v -0.012145 1.711972 0.500360
v -0.007300 1.690755 0.495645
v -0.009626 1.674003 0.479723
v -0.009702 1.651888 0.463566
v 0.016107 1.636887 0.491354
v 0.008864 1.664871 0.508089
v 0.010980 1.663668 0.516370
v -0.003172 1.707102 0.527657
v -0.004527 1.719945 0.511030
v 0.011544 1.700952 0.494565
v 0.013698 1.671717 0.494022
v 0.022741 1.660995 0.474618
v 0.042811 1.635913 0.509704
v 0.027767 1.670868 0.515635
v 0.027299 1.681918 0.527901
v 0.023868 1.699596 0.537206
v 0.027847 1.714623 0.509169
v 0.023369 1.690007 0.510656
v 0.030445 1.675546 0.510624
v 0.039382 1.661948 0.488994
v 0.037579 1.699215 0.532314
v 0.035684 1.686506 0.531080
v 0.038233 1.660105 0.514381
v 0.050238 1.642238 0.513002
v 0.023633 1.706057 0.528391
v 0.030247 1.692723 0.513698
v 0.031605 1.665032 0.510017
v 0.039042 1.647345 0.501352
v -0.055778 1.672017 0.538162
v -0.047757 1.647595 0.528184
v -0.039722 1.623801 0.513679
v -0.040502 1.605682 0.509138
vt 0.654315 0.405871
vt 0.594781 0.417081
vt 0.654315 0.405871
vt 0.594781 0.417081
vt 0.547500 0.445484
vt 0.547500 0.445484
vt 0.594781 0.417081
vt 0.547500 0.445484
vt 0.594781 0.417081
vt 0.654315 0.405871
vt 0.654315 0.405871
vt 0.547500 0.445484
vt 0.594782 0.417081
vt 0.594781 0.417081
vt 0.547500 0.445484
vt 0.594781 0.417081
vt 0.547500 0.445484
vt 0.594781 0.417081
vt 0.654315 0.405871
vt 0.654315 0.405871
vt 0.654315 0.405871
vt 0.654315 0.405871
vt 0.547500 0.445484
vt 0.547500 0.445484
vt 0.445688 0.464751
vt 0.460535 0.399360
vt 0.445688 0.464751
vt 0.736915 0.418224
vt 0.736915 0.418224
vt 0.654753 0.387330
vt 0.700965 0.358055
vt 0.649196 0.324999
vt 0.514601 0.503944
vt 0.547500 0.445484
vt 0.611119 0.371184
vt 0.649196 0.324999
vt 0.575732 0.319942
vt 0.575732 0.319942
vt 0.505741 0.345009
vt 0.505741 0.345009
vt 0.460535 0.399360
vt 0.460535 0.399360
vt 0.514601 0.503944
vt 0.445688 0.464751
vt 0.445688 0.464751
vt 0.468013 0.532437
vt 0.468013 0.532437
vt 0.514711 0.504454
vt 0.514711 0.504454
vt 0.700965 0.358055
vt 0.700965 0.358055
vt 0.514601 0.503944
vt 0.649196 0.324999
vt 0.501398 0.442811
vt 0.538344 0.389917
vt 0.575732 0.319942
vt 0.514711 0.504454
vt 0.468013 0.532437
vt 0.460535 0.399360
vt 0.505741 0.345009
vt 0.514711 0.504454
vt 0.514601 0.503944
vt 0.468013 0.532437
vt 0.505741 0.345009
vt 0.700965 0.358055
vt 0.649196 0.324999
vt 0.649196 0.324999
vt 0.736915 0.418224
vt 0.736915 0.418224
vt 0.575732 0.319942
vt 0.700965 0.358055
vt 0.594781 0.417081
vt 0.654315 0.405871
vt 0.700965 0.358055
vt 0.649196 0.324999
vt 0.575732 0.319942
vt 0.468013 0.532437
vt 0.514711 0.504454
vt 0.736915 0.418224
vt 0.505741 0.345009
vt 0.445688 0.464751
vt 0.514601 0.503944
vt 0.460535 0.399360
vt 0.649196 0.324999
vt 0.700965 0.358055
vt 0.649196 0.324999
vt 0.700965 0.358055
vt 0.649196 0.324999
vt 0.514711 0.504454
vt 0.514601 0.503944
vt 0.514601 0.503944
vt 0.514711 0.504454
vt 0.514601 0.503944
vt 0.514711 0.504454
vt 0.514601 0.503944
vt 0.736915 0.418224
vt 0.700965 0.358055
vt 0.736915 0.418224
vt 0.736915 0.418224
vt 0.468013 0.532437
vt 0.514711 0.504454
vt 0.468013 0.532437
vt 0.468013 0.532437
vt 0.468013 0.532437
vt 0.445688 0.464751
vt 0.445688 0.464751
vt 0.445688 0.464751
vt 0.445688 0.464751
vt 0.460535 0.399360
vt 0.460535 0.399360
vt 0.460535 0.399360
vt 0.505741 0.345009
vt 0.460535 0.399360
vt 0.505742 0.345009
vt 0.505741 0.345009
vt 0.575732 0.319942
vt 0.505741 0.345009
vt 0.575732 0.319942
vt 0.575732 0.319942
vt 0.575732 0.319942
vt 0.736915 0.418224
vt 0.501398 0.442811
vt 0.538344 0.389917
vt 0.654753 0.387330
vt 0.611119 0.371184
vn 0.3097 -0.2749 0.9102
vn 0.1891 -0.3004 0.9349
vn -0.2936 -0.3552 0.8875
vn 0.4967 -0.6096 0.6178
vn 0.9220 -0.3866 0.0214
vn 0.7653 -0.0823 0.6384
vn -0.2228 -0.8745 0.4307
vn 0.6725 0.0437 0.7388
vn 0.5359 -0.7557 0.3766
vn 0.7901 0.2621 0.5542
vn 0.7372 0.2380 0.6324
vn 0.0018 -0.4362 0.8998
vn 0.6393 -0.6688 0.3795
vn 0.2795 0.0371 0.9594
vn 0.2655 -0.2741 0.9243
vn 0.8528 -0.2885 0.4353
vn 0.0554 -0.6659 0.7440
vn -0.2133 -0.5295 0.8211
vn 0.2626 0.2223 0.9390
vn 0.9980 0.0288 0.0567
vn 0.5731 0.1971 0.7955
vn 0.4718 -0.3594 0.8051
vn 0.7461 -0.6048 -0.2785
vn 0.6782 0.0302 0.7343
vn 0.3294 -0.8090 0.4868
vn 0.4323 -0.0241 0.9014
vn 0.5559 -0.7453 0.3681
vn 0.1591 -0.0991 0.9823
vn -0.2534 -0.8534 0.4556
vn 0.9972 -0.0057 -0.0747
vn -0.2355 -0.9346 -0.2666
vn 0.8905 -0.2412 0.3857
vn 0.7286 -0.4973 -0.4710
vn -0.8738 0.2755 -0.4007
vn 0.0324 0.2524 -0.9671
vn 0.8334 -0.1960 -0.5168
vn 0.1301 -0.8917 0.4334
vn 0.1002 0.8109 -0.5765
vn 0.8034 0.5350 0.2614
vn -0.9708 -0.1100 -0.2132
vn -0.3740 -0.7728 0.5127
vn 0.9698 0.2085 0.1269
vn -0.8000 -0.3136 -0.5116
vn 0.4184 0.5115 -0.7506
vn -0.4786 -0.8674 0.1364
vn 0.4756 0.0983 0.8742
vn -0.6612 0.7161 0.2238
vn -0.9297 -0.3664 0.0389
vn 0.8129 0.0339 0.5814
vn 0.6552 -0.3341 0.6775
vn -0.4606 0.5845 0.6679
vn 0.4294 0.5823 -0.6903
vn -0.2305 -0.4971 -0.8365
vn 0.4628 0.1596 0.8719
vn 0.5692 -0.2774 0.7740
vn 0.6053 -0.2929 0.7402
vn -0.3658 -0.5257 0.7680
vn -0.8268 0.2450 0.5063
vn -0.8405 0.2656 -0.4723
vn 0.5687 -0.3167 0.7591
vn -0.9113 -0.0418 0.4096
vn -0.4273 0.0971 -0.8989
vn 0.7040 0.0512 0.7083
vn 0.8261 -0.2003 0.5267
vn -0.9303 0.3615 0.0629
vn -0.6378 0.2778 -0.7184
vn -0.5389 0.2801 -0.7944
vn -0.7772 0.4062 -0.4806
vn 0.9635 -0.2541 0.0848
vn 0.7748 0.2169 -0.5938
vn 0.7778 0.4726 0.4144
vn 0.8258 -0.4524 0.3368
vn 0.2135 0.5384 -0.8152
vn 0.1403 0.8730 -0.4671
vn -0.0002 -0.6507 0.7593
vn 0.3725 0.3021 0.8775
vn 0.6547 0.5416 -0.5274
vn 0.9084 0.3896 -0.1517
vn -0.8469 -0.0245 -0.5311
vn -0.9524 -0.1216 -0.2796
vn -0.9272 -0.0486 -0.3714
vn -0.8946 -0.1322 -0.4268
vn 0.8521 -0.4791 0.2109
vn 0.9024 0.3445 0.2587
vn 0.9866 -0.1006 0.1283
vn 0.9856 0.1480 0.0821
vn -0.7408 -0.6604 0.1231
vn -0.7700 -0.1237 0.6259
vn -0.3791 -0.5716 0.7277
vn -0.4206 -0.4581 0.7831
vn -0.7417 -0.4028 0.5362
vn -0.7047 -0.5283 0.4736
vn -0.9592 -0.0830 0.2703
vn -0.4921 -0.7433 0.4530
vn 0.9376 0.2980 -0.1793
vn 0.8303 0.5519 0.0776
vn 0.8544 0.3342 -0.3979
vn 0.8482 -0.0755 -0.5243
vn 0.6109 0.3118 -0.7278
vn 0.2417 0.8634 -0.4429
vn 0.6323 0.3109 -0.7096
vn 0.7338 -0.1731 -0.6570
vn -0.3137 -0.0397 0.9487
vn -0.4909 -0.5372 0.6859
vn 0.3755 -0.8987 -0.2265
vn -0.2758 -0.3249 0.9046
vn 0.1204 0.3115 -0.9426
vn 0.3013 0.8871 -0.3497
vn -0.0647 0.0137 -0.9978
vn 0.1743 0.7251 -0.6663
vn -0.4392 -0.2209 -0.8708
vn -0.4552 0.5263 -0.7182
vn -0.6679 0.5594 -0.4910
vn 0.0346 0.2243 -0.9739
vn -0.7835 -0.0601 -0.6185
vn -0.6679 -0.1634 -0.7261
vn -0.6152 0.7497 -0.2439
vn -0.6397 -0.1246 -0.7584
vn 0.5392 0.2189 0.8132
vn 0.9155 -0.3550 0.1894
vn 0.8361 0.2701 0.4774
vn 0.9338 -0.2099 0.2897
vn -0.4557 -0.7708 0.4452
vn 0.9159 0.1702 0.3635
vn 0.6681 -0.5194 -0.5328
vn 0.4287 -0.5536 -0.7140
vn 0.2956 -0.8063 -0.5123
vn 0.4047 -0.5734 -0.7123
vn 0.3967 -0.0747 -0.9149
vn 0.1525 -0.3007 -0.9414
vn 0.6958 -0.1360 -0.7052
vn 0.4017 -0.2013 -0.8934
vn 0.7712 -0.4449 -0.4553
vn -0.3062 -0.8103 -0.4996
vn 0.7945 -0.5612 -0.2320
vn -0.0877 0.9705 -0.2246
vn 0.6367 -0.2208 -0.7388
vn 0.6378 -0.6464 -0.4187
vn 0.6650 -0.7446 0.0578
vn 0.7755 -0.5045 -0.3796
vn 0.5376 -0.6235 -0.5676
vn 0.5526 -0.7504 -0.3627
vn -0.3422 0.2950 -0.8921
vn -0.3991 0.7994 -0.4492
vn 0.8554 -0.1564 -0.4939
vn -0.4097 -0.5487 0.7287
vn 0.4848 0.1052 -0.8683
vn 0.8619 0.5065 -0.0252
vn -0.4896 -0.8027 0.3406
vn -0.3690 -0.5150 0.7737
vn 0.9745 0.1293 0.1832
vn -0.8490 -0.3139 -0.4250
vn 0.0166 0.5160 -0.8565
vn -0.5736 0.3454 -0.7428
vn -0.3821 0.7825 -0.4917
vn -0.9633 0.2426 0.1152
vn -0.9689 0.0997 -0.2263
vn -0.5723 0.6637 -0.4816
vn -0.5174 0.6850 -0.5128
vn -0.0315 -0.7724 -0.6343
vn 0.4122 -0.8388 -0.3555
vn -0.3093 -0.6091 -0.7303
vn -0.6203 0.5541 -0.5552
vn -0.5493 0.6722 -0.4964
vn 0.5678 0.3061 0.7641
vn 0.8079 0.3991 0.4336
vn 0.6751 0.2643 0.6888
vn -0.5920 -0.7899 -0.1599
vn -0.7381 -0.5517 -0.3884
vn 0.6983 -0.0281 0.7152
vn 0.2362 0.6219 -0.7466
vn -0.8793 -0.4763 0.0010
vn 0.2078 0.4786 0.8531
vn 0.6512 0.6840 0.3289
vn 0.3074 -0.4954 0.8125
vn 0.2473 0.6913 -0.6789
vn -0.9463 0.1904 -0.2614
vn 0.4952 -0.4877 -0.7189
vn 0.7434 -0.2032 0.6372
vn 0.6207 -0.2978 0.7253
vn -0.4617 -0.7143 0.5259
vn -0.5474 -0.2719 0.7915
vn -0.4070 0.7696 -0.4920
vn -0.1894 0.1812 0.9650
vn -0.9429 0.3315 0.0341
vn -0.0948 -0.0482 -0.9943
vn 0.9882 -0.0678 -0.1370
vn 0.8847 0.0170 0.4658
vn -0.9591 0.2758 0.0639
vn -0.9457 0.2137 -0.2450
vn -0.7830 0.3317 -0.5262
vn -0.6372 0.2803 -0.7179
vn 0.8581 0.5087 -0.0693
vn 0.8211 0.4991 -0.2770
vn 0.3133 -0.1879 0.9309
vn 0.3063 -0.2462 0.9196
vn 0.2661 0.5731 -0.7751
vn 0.2686 0.7585 -0.5937
vn 0.7446 0.4484 0.4945
vn 0.9993 -0.0339 -0.0165
vn 0.8334 0.3872 -0.3943
vn 0.2164 0.9710 -0.1021
vn -0.9112 -0.0570 -0.4081
vn -0.9357 0.1231 -0.3306
vn -0.9401 -0.1240 -0.3174
vn -0.8942 -0.1171 -0.4320
vn 0.9663 0.2113 -0.1468
vn 0.9313 0.3576 0.0693
vn 0.8058 -0.0390 0.5910
vn 0.9439 0.1372 0.3003
vn -0.6303 -0.7622 0.1473
vn -0.5153 -0.5592 0.6494
vn -0.7598 -0.3043 0.5745
vn -0.5467 -0.5844 0.5996
vn -0.6732 -0.4771 0.5650
vn -0.7186 -0.5186 0.4633
vn -0.6973 -0.4300 0.5734
vn -0.9373 0.1075 0.3316
vn 0.7912 0.1336 -0.5968
vn 0.8831 0.4633 0.0736
vn 0.8139 0.3991 -0.4223
vn 0.8559 -0.1849 -0.4830
vn 0.6396 0.3161 -0.7007
vn 0.2668 0.8908 -0.3678
vn 0.8263 0.0712 -0.5587
vn 0.0714 0.6872 -0.7230
vn -0.5436 -0.3252 0.7738
vn -0.2794 -0.2763 0.9196
vn 0.3265 -0.6960 0.6395
vn -0.4079 -0.4860 0.7730
vn 0.2789 0.1562 -0.9475
vn 0.1089 0.5861 -0.8028
vn 0.4682 0.5737 -0.6720
vn -0.1536 0.1808 -0.9715
vn -0.4254 0.2477 -0.8704
vn -0.5892 -0.0378 -0.8071
vn -0.5256 0.7662 -0.3697
vn -0.1762 -0.0374 -0.9836
vn -0.7671 0.0890 -0.6353
vn -0.9490 -0.2474 -0.1954
vn -0.9965 -0.0633 -0.0537
vn -0.6090 -0.0323 -0.7925
vn 0.5622 -0.0354 0.8262
vn 0.9853 -0.0807 0.1508
vn 0.3336 -0.8004 0.4981
vn 0.0563 -0.0451 0.9974
usemtl 0.8,0.379,0.001
s off
f 77/1/1 29/2/1 28/3/1
f 93/4/2 30/5/2 29/2/2
f 29/2/3 55/6/3 72/7/3
f 72/7/4 54/8/4 73/9/4
f 28/3/5 72/7/5 68/10/5
f 68/10/6 73/9/6 69/11/6
f 21/12/7 90/13/7 20/14/7
f 98/15/8 91/16/8 90/13/8
f 91/16/9 100/17/9 92/18/9
f 100/17/10 93/4/10 92/18/10
f 20/14/11 74/19/11 19/20/11
f 90/13/12 75/21/12 74/19/12
f 91/16/13 76/22/13 75/21/13
f 92/18/14 77/1/14 76/22/14
f 77/1/15 93/4/15 29/2/15
f 93/4/16 101/23/16 30/5/16
f 29/2/17 30/5/17 55/6/17
f 72/7/18 55/6/18 54/8/18
f 28/3/19 29/2/19 72/7/19
f 68/10/20 72/7/20 73/9/20
f 21/12/21 98/15/21 90/13/21
f 98/15/22 99/24/22 91/16/22
f 91/16/23 99/24/23 100/17/23
f 100/17/24 101/23/24 93/4/24
f 20/14/25 90/13/25 74/19/25
f 90/13/26 91/16/26 75/21/26
f 91/16/27 92/18/27 76/22/27
f 92/18/28 93/4/28 77/1/28
usemtl 0.8,0.8,0.002
f 50/25/29 31/26/29 32/27/29
f 78/28/30 28/3/30 4/29/30
f 17/30/31 6/31/31 7/32/31
f 54/8/32 40/33/32 47/34/32
f 20/14/33 19/20/33 16/35/33
f 85/36/34 1/37/34 86/38/34
f 86/38/35 22/39/35 94/40/35
f 102/41/36 22/39/36 23/42/36
f 101/23/37 27/43/37 30/5/37
f 102/41/38 24/44/38 110/45/38
f 114/46/39 24/44/39 25/47/39
f 118/48/40 25/47/40 26/49/40
f 78/28/41 3/50/41 122/51/41
f 118/48/42 27/43/42 109/52/42
f 122/51/43 2/53/43 85/36/43
f 47/34/44 41/54/44 42/55/44
f 34/56/45 39/57/45 38/58/45
f 53/59/46 33/60/46 31/26/46
f 59/61/47 40/33/47 57/62/47
f 60/63/48 32/27/48 38/58/48
f 49/64/49 34/56/49 33/60/49
f 65/65/50 35/66/50 66/67/50
f 69/11/51 37/68/51 70/69/51
f 60/63/52 39/57/52 59/61/52
f 66/67/53 34/56/53 63/70/53
f 65/65/54 37/68/54 36/71/54
f 69/11/55 46/72/55 45/73/55
f 73/9/56 47/34/56 46/72/56
f 4/29/57 64/74/57 3/50/57
f 64/74/58 70/69/58 65/65/58
f 1/37/59 67/75/59 62/76/59
f 62/76/60 66/67/60 63/70/60
f 26/49/61 61/77/61 58/78/61
f 58/78/62 60/63/62 59/61/62
f 4/29/63 68/10/63 71/79/63
f 68/10/64 70/69/64 71/79/64
f 2/53/65 64/74/65 67/75/65
f 67/75/66 65/65/66 66/67/66
f 1/37/67 48/80/67 22/39/67
f 62/76/68 49/64/68 48/80/68
f 24/44/69 61/77/69 25/47/69
f 51/81/70 60/63/70 61/77/70
f 26/49/71 56/82/71 27/43/71
f 56/82/72 59/61/72 57/62/72
f 23/42/73 48/80/73 52/83/73
f 48/80/74 53/59/74 52/83/74
f 27/43/75 55/6/75 30/5/75
f 55/6/76 57/62/76 54/8/76
f 23/42/77 51/81/77 24/44/77
f 52/83/78 50/25/78 51/81/78
f 6/31/79 82/84/79 7/32/79
f 82/84/80 124/85/80 83/86/80
f 83/86/81 123/87/81 84/88/81
f 84/88/82 122/51/82 85/36/82
f 13/89/83 106/90/83 18/91/83
f 106/90/84 120/92/84 107/93/84
f 107/93/85 119/94/85 108/95/85
f 108/95/86 118/48/86 109/52/86
f 6/31/87 81/96/87 125/97/87
f 125/97/88 80/98/88 124/85/88
f 124/85/89 79/99/89 123/87/89
f 79/99/90 122/51/90 123/87/90
f 13/89/91 117/100/91 121/101/91
f 121/101/92 116/102/92 120/92/92
f 120/92/93 115/103/93 119/94/93
f 119/94/94 114/46/94 118/48/94
f 12/104/95 113/105/95 117/100/95
f 113/105/96 116/102/96 117/100/96
f 112/106/97 115/103/97 116/102/97
f 111/107/98 114/46/98 115/103/98
f 11/108/99 105/109/99 113/105/99
f 113/105/100 104/110/100 112/106/100
f 104/110/101 111/107/101 112/106/101
f 103/111/102 110/45/102 111/107/102
f 18/91/103 98/15/103 21/12/103
f 106/90/104 99/24/104 98/15/104
f 107/93/105 100/17/105 99/24/105
f 108/95/106 101/23/106 100/17/106
f 9/112/107 105/109/107 10/113/107
f 105/109/108 96/114/108 104/110/108
f 104/110/109 95/115/109 103/111/109
f 103/111/110 94/40/110 102/41/110
f 9/112/111 89/116/111 97/117/111
f 97/117/112 88/118/112 96/114/112
f 96/114/113 87/119/113 95/115/113
f 95/115/114 86/38/114 94/40/114
f 8/120/115 82/84/115 89/116/115
f 82/84/116 88/118/116 89/116/116
f 88/118/117 84/88/117 87/119/117
f 87/119/118 85/36/118 86/38/118
f 19/20/119 81/96/119 5/121/119
f 74/19/120 80/98/120 81/96/120
f 75/21/121 79/99/121 80/98/121
f 79/99/122 77/1/122 78/28/122
f 50/25/123 53/59/123 31/26/123
f 78/28/124 77/1/124 28/3/124
f 10/113/125 11/108/125 14/122/125
f 11/108/126 12/104/126 13/89/126
f 13/89/127 18/91/127 14/122/127
f 11/108/128 13/89/128 14/122/128
f 8/120/129 9/112/129 15/123/129
f 9/112/130 10/113/130 15/123/130
f 7/32/131 8/120/131 16/35/131
f 16/35/132 8/120/132 15/123/132
f 10/113/133 14/122/133 15/123/133
f 17/30/134 5/121/134 6/31/134
f 16/35/135 17/30/135 7/32/135
f 54/8/136 57/62/136 40/33/136
f 19/20/137 5/121/137 17/30/137
f 17/30/138 16/35/138 19/20/138
f 16/35/139 15/123/139 20/14/139
f 15/123/140 14/122/140 21/12/140
f 14/122/141 18/91/141 21/12/141
f 21/12/142 20/14/142 15/123/142
f 85/36/143 2/53/143 1/37/143
f 86/38/144 1/37/144 22/39/144
f 102/41/145 94/40/145 22/39/145
f 101/23/146 109/52/146 27/43/146
f 102/41/147 23/42/147 24/44/147
f 114/46/148 110/45/148 24/44/148
f 118/48/149 114/46/149 25/47/149
f 78/28/150 4/29/150 3/50/150
f 118/48/151 26/49/151 27/43/151
f 122/51/152 3/50/152 2/53/152
f 44/124/153 37/68/153 45/73/153
f 45/73/154 46/72/154 44/124/154
f 46/72/155 47/34/155 42/55/155
f 44/124/156 46/72/156 43/125/156
f 47/34/157 40/33/157 41/54/157
f 42/55/158 43/125/158 46/72/158
f 31/26/159 33/60/159 34/56/159
f 35/66/160 36/71/160 37/68/160
f 44/124/161 43/125/161 42/55/161
f 44/124/162 42/55/162 41/54/162
f 44/124/163 41/54/163 40/33/163
f 37/68/164 44/124/164 40/33/164
f 35/66/165 37/68/165 40/33/165
f 32/27/166 31/26/166 38/58/166
f 31/26/167 34/56/167 38/58/167
f 35/66/168 40/33/168 34/56/168
f 40/33/169 39/57/169 34/56/169
f 53/59/170 49/64/170 33/60/170
f 59/61/171 39/57/171 40/33/171
f 60/63/172 50/25/172 32/27/172
f 49/64/173 63/70/173 34/56/173
f 65/65/174 36/71/174 35/66/174
f 69/11/175 45/73/175 37/68/175
f 60/63/176 38/58/176 39/57/176
f 66/67/177 35/66/177 34/56/177
f 65/65/178 70/69/178 37/68/178
f 69/11/179 73/9/179 46/72/179
f 73/9/180 54/8/180 47/34/180
f 4/29/181 71/79/181 64/74/181
f 64/74/182 71/79/182 70/69/182
f 1/37/183 2/53/183 67/75/183
f 62/76/184 67/75/184 66/67/184
f 26/49/185 25/47/185 61/77/185
f 58/78/186 61/77/186 60/63/186
f 4/29/187 28/3/187 68/10/187
f 68/10/188 69/11/188 70/69/188
f 2/53/189 3/50/189 64/74/189
f 67/75/190 64/74/190 65/65/190
f 1/37/191 62/76/191 48/80/191
f 62/76/192 63/70/192 49/64/192
f 24/44/193 51/81/193 61/77/193
f 51/81/194 50/25/194 60/63/194
f 26/49/195 58/78/195 56/82/195
f 56/82/196 58/78/196 59/61/196
f 23/42/197 22/39/197 48/80/197
f 48/80/198 49/64/198 53/59/198
f 27/43/199 56/82/199 55/6/199
f 55/6/200 56/82/200 57/62/200
f 23/42/201 52/83/201 51/81/201
f 52/83/202 53/59/202 50/25/202
f 6/31/203 125/97/203 82/84/203
f 82/84/204 125/97/204 124/85/204
f 83/86/205 124/85/205 123/87/205
f 84/88/206 123/87/206 122/51/206
f 13/89/207 121/101/207 106/90/207
f 106/90/208 121/101/208 120/92/208
f 107/93/209 120/92/209 119/94/209
f 108/95/210 119/94/210 118/48/210
f 6/31/211 5/121/211 81/96/211
f 125/97/212 81/96/212 80/98/212
f 124/85/213 80/98/213 79/99/213
f 79/99/214 78/28/214 122/51/214
f 13/89/215 12/104/215 117/100/215
f 121/101/216 117/100/216 116/102/216
f 120/92/217 116/102/217 115/103/217
f 119/94/218 115/103/218 114/46/218
f 12/104/219 11/108/219 113/105/219
f 113/105/220 112/106/220 116/102/220
f 112/106/221 111/107/221 115/103/221
f 111/107/222 110/45/222 114/46/222
f 11/108/223 10/113/223 105/109/223
f 113/105/224 105/109/224 104/110/224
f 104/110/225 103/111/225 111/107/225
f 103/111/226 102/41/226 110/45/226
f 18/91/227 106/90/227 98/15/227
f 106/90/228 107/93/228 99/24/228
f 107/93/229 108/95/229 100/17/229
f 108/95/230 109/52/230 101/23/230
f 9/112/231 97/117/231 105/109/231
f 105/109/232 97/117/232 96/114/232
f 104/110/233 96/114/233 95/115/233
f 103/111/234 95/115/234 94/40/234
f 9/112/235 8/120/235 89/116/235
f 97/117/236 89/116/236 88/118/236
f 96/114/237 88/118/237 87/119/237
f 95/115/238 87/119/238 86/38/238
f 8/120/239 7/32/239 82/84/239
f 82/84/240 83/86/240 88/118/240
f 88/118/241 83/86/241 84/88/241
f 87/119/242 84/88/242 85/36/242
f 19/20/243 74/19/243 81/96/243
f 74/19/244 75/21/244 80/98/244
f 75/21/245 76/22/245 79/99/245
f 79/99/246 76/22/246 77/1/246
