# Blender v2.91.0 OBJ File: 'rightear.blend'
# www.blender.org
mtllib leftear.mtl
o Plane.001_Plane.002
v 10.723112 2.370181 7.416025
v 10.817600 2.336631 7.435548
v 10.868040 2.265120 7.368092
v 10.776324 2.268539 7.247407
v 10.539796 1.814817 7.445021
v 10.603159 1.885249 7.537229
v 10.544446 1.892742 7.573298
v 10.529675 1.988039 7.570527
v 10.502970 2.072813 7.548642
v 10.421199 2.077998 7.491909
v 10.416024 2.080816 7.475904
v 10.382853 2.016759 7.344658
v 10.405215 2.033047 7.399879
v 10.441102 2.032407 7.452479
v 10.460357 1.999001 7.489369
v 10.534027 1.913528 7.551662
v 10.560808 1.879535 7.533010
v 10.438069 2.006407 7.383709
v 10.525960 1.911389 7.468561
v 10.496205 1.968361 7.496273
v 10.470409 1.982697 7.417144
v 10.585588 2.387421 7.429432
v 10.569645 2.436643 7.364186
v 10.530924 2.394121 7.315453
v 10.586104 2.370037 7.237590
v 10.562119 2.392522 7.271300
v 10.578007 2.370681 7.245608
v 10.745164 2.350615 7.322482
v 10.694896 2.356092 7.314098
v 10.653516 2.347032 7.305917
v 10.609906 2.511149 7.329330
v 10.541598 2.467988 7.354643
v 10.688032 2.489412 7.324383
v 10.793237 2.508846 7.269356
v 10.736428 2.508515 7.332682
v 10.740992 2.474351 7.289324
v 10.884660 2.417237 7.276412
v 10.509373 2.353729 7.316513
v 10.574062 2.391818 7.331751
v 10.647259 2.456146 7.331491
v 10.689245 2.516939 7.271270
v 10.738068 2.554427 7.303134
v 10.833026 2.497012 7.317512
v 10.870559 2.460896 7.239362
v 10.932938 2.608478 7.171670
v 10.846040 2.634204 7.179197
v 10.727598 2.631015 7.207067
v 10.679680 2.541497 7.371426
v 10.726120 2.606475 7.308681
v 10.630032 2.542620 7.267553
v 10.592668 2.488898 7.311979
v 10.613559 2.538818 7.315876
v 10.660571 2.550481 7.331404
v 10.728439 2.476506 7.256549
v 10.648183 2.419744 7.233623
v 10.630399 2.460758 7.267594
v 10.637849 2.475896 7.250820
v 10.565323 2.457508 7.259196
v 10.615712 2.496548 7.256329
v 10.571974 2.441194 7.260911
v 10.563363 2.407476 7.255854
v 10.799960 2.489385 7.324170
v 10.825329 2.549231 7.299226
v 10.872984 2.335180 7.304131
v 10.822295 2.532439 7.296642
v 10.744004 2.582577 7.302755
v 10.826576 2.421191 7.328805
v 10.764881 2.381600 7.257302
v 10.805027 2.483216 7.230543
v 10.843162 2.417541 7.201728
v 10.829460 2.322176 7.232699
v 10.725118 2.387627 7.327226
v 10.775981 2.479812 7.243581
v 10.606324 1.987586 7.454913
v 10.627472 2.088588 7.410746
v 10.655961 2.141937 7.335283
v 10.691978 2.245210 7.345692
v 10.765123 2.225067 7.275485
v 10.714768 2.116622 7.361813
v 10.677864 2.009655 7.350390
v 10.648044 1.905674 7.452175
v 10.628926 2.005076 7.524930
v 10.704330 2.068505 7.455094
v 10.711466 2.166592 7.455126
v 10.730838 2.249871 7.454089
v 10.656023 2.334587 7.483208
v 10.633659 2.201695 7.471467
v 10.662125 2.140723 7.538724
v 10.588249 2.075029 7.548742
v 10.557674 2.023698 7.411245
v 10.579812 2.118651 7.409296
v 10.608818 2.168840 7.327768
v 10.657277 2.268888 7.332417
v 10.594394 2.339271 7.448476
v 10.571665 2.264393 7.455740
v 10.553943 2.205272 7.509693
v 10.528745 2.127222 7.560843
v 10.490978 2.074282 7.432438
v 10.540206 2.173041 7.390986
v 10.546559 2.168797 7.361499
v 10.609032 2.322084 7.348133
v 10.587131 2.367409 7.402782
v 10.510445 2.300378 7.429483
v 10.502789 2.197202 7.427804
v 10.443675 2.159365 7.474857
v 10.435525 2.070843 7.332437
v 10.492380 2.194207 7.337389
v 10.513172 2.233204 7.299387
v 10.538658 2.295595 7.275396
v 10.481949 2.348627 7.357686
v 10.498432 2.261753 7.360042
v 10.476033 2.210717 7.349000
v 10.413748 2.162727 7.403246
v 10.487652 2.294249 7.269259
v 10.491693 2.249396 7.276141
v 10.457349 2.156223 7.324871
v 10.417261 2.093168 7.310326
v 10.525524 2.318397 7.303608
v 10.481499 2.271337 7.339605
v 10.471411 2.173611 7.349092
v 10.434280 2.111191 7.364750
v 10.791728 2.198263 7.397777
v 10.750684 2.112073 7.416666
v 10.702466 2.028098 7.449827
v 10.697780 1.964155 7.465398
vt 0.654315 0.405871
vt 0.594781 0.417081
vt 0.654315 0.405871
vt 0.594781 0.417081
vt 0.547500 0.445484
vt 0.547500 0.445484
vt 0.594781 0.417081
vt 0.547500 0.445484
vt 0.594781 0.417081
vt 0.654315 0.405871
vt 0.654315 0.405871
vt 0.547500 0.445484
vt 0.594782 0.417081
vt 0.594781 0.417081
vt 0.547500 0.445484
vt 0.594781 0.417081
vt 0.547500 0.445484
vt 0.594781 0.417081
vt 0.654315 0.405871
vt 0.654315 0.405871
vt 0.654315 0.405871
vt 0.654315 0.405871
vt 0.547500 0.445484
vt 0.547500 0.445484
vt 0.445688 0.464751
vt 0.460535 0.399360
vt 0.445688 0.464751
vt 0.736915 0.418224
vt 0.736915 0.418224
vt 0.654753 0.387330
vt 0.700965 0.358055
vt 0.649196 0.324999
vt 0.514601 0.503944
vt 0.547500 0.445484
vt 0.611119 0.371184
vt 0.649196 0.324999
vt 0.575732 0.319942
vt 0.575732 0.319942
vt 0.505741 0.345009
vt 0.505741 0.345009
vt 0.460535 0.399360
vt 0.460535 0.399360
vt 0.514601 0.503944
vt 0.445688 0.464751
vt 0.445688 0.464751
vt 0.468013 0.532437
vt 0.468013 0.532437
vt 0.514711 0.504454
vt 0.514711 0.504454
vt 0.700965 0.358055
vt 0.700965 0.358055
vt 0.514601 0.503944
vt 0.649196 0.324999
vt 0.501398 0.442811
vt 0.538344 0.389917
vt 0.575732 0.319942
vt 0.514711 0.504454
vt 0.468013 0.532437
vt 0.460535 0.399360
vt 0.505741 0.345009
vt 0.514711 0.504454
vt 0.514601 0.503944
vt 0.468013 0.532437
vt 0.505741 0.345009
vt 0.700965 0.358055
vt 0.649196 0.324999
vt 0.649196 0.324999
vt 0.736915 0.418224
vt 0.736915 0.418224
vt 0.575732 0.319942
vt 0.700965 0.358055
vt 0.594781 0.417081
vt 0.654315 0.405871
vt 0.700965 0.358055
vt 0.649196 0.324999
vt 0.575732 0.319942
vt 0.468013 0.532437
vt 0.514711 0.504454
vt 0.736915 0.418224
vt 0.505741 0.345009
vt 0.445688 0.464751
vt 0.514601 0.503944
vt 0.460535 0.399360
vt 0.649196 0.324999
vt 0.700965 0.358055
vt 0.649196 0.324999
vt 0.700965 0.358055
vt 0.649196 0.324999
vt 0.514711 0.504454
vt 0.514601 0.503944
vt 0.514601 0.503944
vt 0.514711 0.504454
vt 0.514601 0.503944
vt 0.514711 0.504454
vt 0.514601 0.503944
vt 0.736915 0.418224
vt 0.700965 0.358055
vt 0.736915 0.418224
vt 0.736915 0.418224
vt 0.468013 0.532437
vt 0.514711 0.504454
vt 0.468013 0.532437
vt 0.468013 0.532437
vt 0.468013 0.532437
vt 0.445688 0.464751
vt 0.445688 0.464751
vt 0.445688 0.464751
vt 0.445688 0.464751
vt 0.460535 0.399360
vt 0.460535 0.399360
vt 0.460535 0.399360
vt 0.505741 0.345009
vt 0.460535 0.399360
vt 0.505742 0.345009
vt 0.505741 0.345009
vt 0.575732 0.319942
vt 0.505741 0.345009
vt 0.575732 0.319942
vt 0.575732 0.319942
vt 0.575732 0.319942
vt 0.736915 0.418224
vt 0.501398 0.442811
vt 0.538344 0.389917
vt 0.654753 0.387330
vt 0.611119 0.371184
vn 0.1290 -0.2749 -0.9528
vn 0.2479 -0.3004 -0.9210
vn 0.6587 -0.3552 -0.6633
vn -0.1689 -0.6096 -0.7745
vn -0.8156 -0.3866 -0.4305
vn -0.4001 -0.0823 -0.9128
vn 0.3916 -0.8745 -0.2861
vn -0.2722 0.0437 -0.9612
vn -0.3116 -0.7557 -0.5761
vn -0.4598 0.2621 -0.8484
vn -0.3777 0.2380 -0.8948
vn 0.3998 -0.4362 -0.8062
vn -0.4028 -0.6688 -0.6249
vn 0.1779 0.0371 -0.9833
vn 0.1748 -0.2741 -0.9457
vn -0.5690 -0.2885 -0.7701
vn 0.2823 -0.6659 -0.6906
vn 0.5572 -0.5295 -0.6397
vn 0.1839 0.2223 -0.9575
vn -0.8678 0.0288 -0.4960
vn -0.1580 0.1971 -0.9676
vn -0.0631 -0.3594 -0.9311
vn -0.7919 -0.6048 -0.0836
vn -0.2794 0.0302 -0.9597
vn -0.0776 -0.8090 -0.5826
vn 0.0152 -0.0241 -0.9996
vn -0.3333 -0.7453 -0.5774
vn 0.2958 -0.0991 -0.9501
vn 0.4300 -0.8534 -0.2947
vn -0.9258 -0.0056 -0.3781
vn 0.0918 -0.9346 0.3437
vn -0.6249 -0.2412 -0.7425
vn -0.8622 -0.4972 0.0965
vn 0.6033 0.2755 0.7484
vn -0.4604 0.2524 0.8510
vn -0.9764 -0.1961 0.0907
vn 0.0769 -0.8917 -0.4460
vn -0.3469 0.8109 0.4713
vn -0.6024 0.5350 -0.5924
vn 0.7737 -0.1100 0.6239
vn 0.5635 -0.7728 -0.2920
vn -0.8113 0.2085 -0.5462
vn 0.4877 -0.3136 0.8147
vn -0.7093 0.5115 0.4851
vn 0.4892 -0.8674 0.0915
vn -0.0356 0.0983 -0.9945
vn 0.6916 0.7160 0.0947
vn 0.8494 -0.3663 0.3800
vn -0.4681 0.0339 -0.8830
vn -0.2841 -0.3341 -0.8987
vn 0.7103 0.5845 -0.3923
vn -0.6923 0.5823 0.4263
vn -0.1669 -0.4972 0.8515
vn -0.0252 0.1596 -0.9869
vn -0.1641 -0.2774 -0.9467
vn -0.2115 -0.2929 -0.9325
vn 0.6700 -0.5258 -0.5241
vn 0.9659 0.2450 -0.0842
vn 0.5415 0.2656 0.7977
vn -0.1703 -0.3167 -0.9331
vn 0.9983 -0.0418 0.0400
vn -0.0186 0.0971 0.9951
vn -0.3141 0.0512 -0.9480
vn -0.5043 -0.2003 -0.8400
vn 0.8606 0.3614 0.3587
vn 0.2503 0.2778 0.9275
vn 0.1279 0.2801 0.9514
vn 0.4812 0.4062 0.7768
vn -0.8245 -0.2541 -0.5057
vn -0.9583 0.2169 0.1858
vn -0.5112 0.4726 -0.7179
vn -0.5888 -0.4524 -0.6698
vn -0.5548 0.5384 0.6344
vn -0.3340 0.8730 0.3554
vn 0.3389 -0.6507 -0.6795
vn 0.0581 0.3021 -0.9515
vn -0.8212 0.5416 0.1799
vn -0.8806 0.3896 -0.2696
vn 0.5210 -0.0245 0.8532
vn 0.7276 -0.1216 0.6752
vn 0.6641 -0.0486 0.7460
vn 0.6103 -0.1322 0.7811
vn -0.6685 -0.4791 -0.5689
vn -0.6923 0.3445 -0.6341
vn -0.8258 -0.1006 -0.5550
vn -0.8454 0.1480 -0.5132
vn 0.7179 -0.6604 0.2203
vn 0.9684 -0.1237 -0.2166
vn 0.6639 -0.5716 -0.4821
vn 0.7258 -0.4581 -0.5132
vn 0.9030 -0.4029 -0.1490
vn 0.8420 -0.5283 -0.1095
vn 0.9790 -0.0830 0.1860
vn 0.6426 -0.7433 -0.1859
vn -0.9191 0.2980 -0.2578
vn -0.7085 0.5519 -0.4399
vn -0.9422 0.3342 -0.0251
vn -0.9930 -0.0755 0.0909
vn -0.8714 0.3118 0.3788
vn -0.4139 0.8634 0.2886
vn -0.8825 0.3110 0.3529
vn -0.9498 -0.1731 0.2606
vn 0.7040 -0.0397 -0.7091
vn 0.7453 -0.5372 -0.3948
vn -0.4371 -0.8987 0.0352
vn 0.6504 -0.3249 -0.6866
vn -0.5283 0.3115 0.7899
vn -0.4257 0.8871 0.1785
vn -0.3873 0.0137 0.9218
vn -0.4532 0.7251 0.5185
vn 0.0046 -0.2209 0.9753
vn 0.0870 0.5262 0.8459
vn 0.3787 0.5594 0.7374
vn -0.4655 0.2243 0.8562
vn 0.4252 -0.0601 0.9031
vn 0.2738 -0.1634 0.9478
vn 0.4417 0.7497 0.4927
vn 0.2342 -0.1246 0.9642
vn -0.1197 0.2189 -0.9684
vn -0.7349 -0.3550 -0.5779
vn -0.5353 0.2701 -0.8003
vn -0.7065 -0.2100 -0.6758
vn 0.6064 -0.7708 -0.1951
vn -0.6576 0.1702 -0.7339
vn -0.8357 -0.5194 0.1787
vn -0.7023 -0.5535 0.4477
vn -0.4931 -0.8063 0.3266
vn -0.6800 -0.5734 0.4570
vn -0.7632 -0.0748 0.6418
vn -0.5565 -0.3007 0.7745
vn -0.9374 -0.1359 0.3208
vn -0.7581 -0.2013 0.6203
vn -0.8933 -0.4449 0.0634
vn 0.0511 -0.8103 0.5838
vn -0.8146 -0.5612 -0.1469
vn -0.0217 0.9705 0.2401
vn -0.8994 -0.2208 0.3772
vn -0.7576 -0.6464 0.0902
vn -0.5694 -0.7446 -0.3484
vn -0.8633 -0.5046 -0.0063
vn -0.7344 -0.6235 0.2681
vn -0.6564 -0.7504 0.0780
vn -0.0918 0.2950 0.9511
vn 0.1568 0.7994 0.5800
vn -0.9858 -0.1564 0.0604
vn 0.6918 -0.5487 -0.4694
vn -0.8213 0.1052 0.5608
vn -0.7826 0.5065 -0.3619
vn 0.5901 -0.8027 -0.0864
vn 0.6754 -0.5149 -0.5279
vn -0.7905 0.1293 -0.5987
vn 0.5703 -0.3139 0.7591
vn -0.3970 0.5159 0.7591
vn 0.1820 0.3454 0.9207
vn 0.1226 0.7825 0.6105
vn 0.9135 0.2426 0.3266
vn 0.7662 0.0997 0.6348
vn 0.2974 0.6637 0.6863
vn 0.2343 0.6850 0.6898
vn -0.2548 -0.7724 0.5818
vn -0.5275 -0.8389 0.1343
vn -0.0490 -0.6091 0.7916
vn 0.3074 0.5541 0.7736
vn 0.2701 0.6722 0.6893
vn -0.1673 0.3061 -0.9372
vn -0.5296 0.3991 -0.7485
vn -0.2969 0.2643 -0.9176
vn 0.4585 -0.7899 0.4072
vn 0.4873 -0.5517 0.6769
vn -0.3059 -0.0281 -0.9517
vn -0.5445 0.6219 0.5628
vn 0.7874 -0.4764 0.3913
vn 0.1946 0.4786 -0.8562
vn -0.4360 0.6840 -0.5848
vn 0.0874 -0.4954 -0.8643
vn -0.5242 0.6913 0.4973
vn 0.7303 0.1904 0.6561
vn -0.7639 -0.4877 0.4225
vn -0.3810 -0.2032 -0.9020
vn -0.2319 -0.2978 -0.9260
vn 0.6478 -0.7143 -0.2647
vn 0.8430 -0.2718 -0.4642
vn 0.1448 0.7696 0.6219
vn 0.6000 0.1812 -0.7792
vn 0.8590 0.3315 0.3901
vn -0.3586 -0.0482 0.9323
vn -0.9456 -0.0679 -0.3183
vn -0.5840 0.0170 -0.8116
vn 0.8868 0.2758 0.3707
vn 0.7370 0.2137 0.6412
vn 0.4660 0.3317 0.8203
vn 0.2501 0.2803 0.9268
vn -0.7989 0.5087 -0.3209
vn -0.8584 0.4991 -0.1184
vn 0.1349 -0.1879 -0.9729
vn 0.1361 -0.2462 -0.9596
vn -0.5839 0.5731 0.5750
vn -0.5053 0.7585 0.4115
vn -0.4458 0.4484 -0.7747
vn -0.9017 -0.0339 -0.4311
vn -0.9218 0.3873 -0.0189
vn -0.2392 0.9710 -0.0051
vn 0.6334 -0.0570 0.7717
vn 0.6899 0.1232 0.7133
vn 0.6998 -0.1240 0.7035
vn 0.6076 -0.1171 0.7856
vn -0.9303 0.2113 -0.2997
vn -0.8026 0.3576 -0.4775
vn -0.4575 -0.0390 -0.8884
vn -0.7108 0.1372 -0.6899
vn 0.6299 -0.7622 0.1494
vn 0.7509 -0.5592 -0.3513
vn 0.9363 -0.3043 -0.1752
vn 0.7568 -0.5844 -0.2927
vn 0.8545 -0.4771 -0.2053
vn 0.8498 -0.5186 -0.0940
vn 0.8799 -0.4300 -0.2021
vn 0.9868 0.1075 0.1213
vn -0.9744 0.1335 0.1811
vn -0.7575 0.4634 -0.4599
vn -0.9168 0.3991 0.0148
vn -0.9815 -0.1848 0.0504
vn -0.8850 0.3161 0.3418
vn -0.4029 0.8908 0.2102
vn -0.9888 0.0712 0.1314
vn -0.3865 0.6872 0.6152
vn 0.8317 -0.3252 -0.4500
vn 0.6603 -0.2763 -0.6983
vn -0.0069 -0.6960 -0.7180
vn 0.7099 -0.4860 -0.5098
vn -0.6723 0.1562 0.7236
vn -0.4557 0.5861 0.6699
vn -0.7189 0.5737 0.3925
vn -0.2960 0.1808 0.9379
vn -0.0076 0.2477 0.9688
vn 0.1672 -0.0378 0.9852
vn 0.3055 0.7662 0.5653
vn -0.2811 -0.0374 0.9590
vn 0.4032 0.0890 0.9108
vn 0.7622 -0.2474 0.5983
vn 0.8679 -0.0633 0.4927
vn 0.1915 -0.0323 0.9810
vn -0.1346 -0.0354 -0.9903
vn -0.8145 -0.0807 -0.5745
vn -0.0763 -0.8004 -0.5946
vn 0.3946 -0.0451 -0.9178
usemtl 0.8,0.379,0.001
s off
f 77/1/1 29/2/1 28/3/1
f 93/4/2 30/5/2 29/2/2
f 29/2/3 55/6/3 72/7/3
f 72/7/4 54/8/4 73/9/4
f 28/3/5 72/7/5 68/10/5
f 68/10/6 73/9/6 69/11/6
f 21/12/7 90/13/7 20/14/7
f 98/15/8 91/16/8 90/13/8
f 91/16/9 100/17/9 92/18/9
f 100/17/10 93/4/10 92/18/10
f 20/14/11 74/19/11 19/20/11
f 90/13/12 75/21/12 74/19/12
f 91/16/13 76/22/13 75/21/13
f 92/18/14 77/1/14 76/22/14
f 77/1/15 93/4/15 29/2/15
f 93/4/16 101/23/16 30/5/16
f 29/2/17 30/5/17 55/6/17
f 72/7/18 55/6/18 54/8/18
f 28/3/19 29/2/19 72/7/19
f 68/10/20 72/7/20 73/9/20
f 21/12/21 98/15/21 90/13/21
f 98/15/22 99/24/22 91/16/22
f 91/16/23 99/24/23 100/17/23
f 100/17/24 101/23/24 93/4/24
f 20/14/25 90/13/25 74/19/25
f 90/13/26 91/16/26 75/21/26
f 91/16/27 92/18/27 76/22/27
f 92/18/28 93/4/28 77/1/28
usemtl 0.8,0.8,0.002
f 50/25/29 31/26/29 32/27/29
f 78/28/30 28/3/30 4/29/30
f 17/30/31 6/31/31 7/32/31
f 54/8/32 40/33/32 47/34/32
f 20/14/33 19/20/33 16/35/33
f 85/36/34 1/37/34 86/38/34
f 86/38/35 22/39/35 94/40/35
f 102/41/36 22/39/36 23/42/36
f 101/23/37 27/43/37 30/5/37
f 102/41/38 24/44/38 110/45/38
f 114/46/39 24/44/39 25/47/39
f 118/48/40 25/47/40 26/49/40
f 78/28/41 3/50/41 122/51/41
f 118/48/42 27/43/42 109/52/42
f 122/51/43 2/53/43 85/36/43
f 47/34/44 41/54/44 42/55/44
f 34/56/45 39/57/45 38/58/45
f 53/59/46 33/60/46 31/26/46
f 59/61/47 40/33/47 57/62/47
f 60/63/48 32/27/48 38/58/48
f 49/64/49 34/56/49 33/60/49
f 65/65/50 35/66/50 66/67/50
f 69/11/51 37/68/51 70/69/51
f 60/63/52 39/57/52 59/61/52
f 66/67/53 34/56/53 63/70/53
f 65/65/54 37/68/54 36/71/54
f 69/11/55 46/72/55 45/73/55
f 73/9/56 47/34/56 46/72/56
f 4/29/57 64/74/57 3/50/57
f 64/74/58 70/69/58 65/65/58
f 1/37/59 67/75/59 62/76/59
f 62/76/60 66/67/60 63/70/60
f 26/49/61 61/77/61 58/78/61
f 58/78/62 60/63/62 59/61/62
f 4/29/63 68/10/63 71/79/63
f 68/10/64 70/69/64 71/79/64
f 2/53/65 64/74/65 67/75/65
f 67/75/66 65/65/66 66/67/66
f 1/37/67 48/80/67 22/39/67
f 62/76/68 49/64/68 48/80/68
f 24/44/69 61/77/69 25/47/69
f 51/81/70 60/63/70 61/77/70
f 26/49/71 56/82/71 27/43/71
f 56/82/72 59/61/72 57/62/72
f 23/42/73 48/80/73 52/83/73
f 48/80/74 53/59/74 52/83/74
f 27/43/75 55/6/75 30/5/75
f 55/6/76 57/62/76 54/8/76
f 23/42/77 51/81/77 24/44/77
f 52/83/78 50/25/78 51/81/78
f 6/31/79 82/84/79 7/32/79
f 82/84/80 124/85/80 83/86/80
f 83/86/81 123/87/81 84/88/81
f 84/88/82 122/51/82 85/36/82
f 13/89/83 106/90/83 18/91/83
f 106/90/84 120/92/84 107/93/84
f 107/93/85 119/94/85 108/95/85
f 108/95/86 118/48/86 109/52/86
f 6/31/87 81/96/87 125/97/87
f 125/97/88 80/98/88 124/85/88
f 124/85/89 79/99/89 123/87/89
f 79/99/90 122/51/90 123/87/90
f 13/89/91 117/100/91 121/101/91
f 121/101/92 116/102/92 120/92/92
f 120/92/93 115/103/93 119/94/93
f 119/94/94 114/46/94 118/48/94
f 12/104/95 113/105/95 117/100/95
f 113/105/96 116/102/96 117/100/96
f 112/106/97 115/103/97 116/102/97
f 111/107/98 114/46/98 115/103/98
f 11/108/99 105/109/99 113/105/99
f 113/105/100 104/110/100 112/106/100
f 104/110/101 111/107/101 112/106/101
f 103/111/102 110/45/102 111/107/102
f 18/91/103 98/15/103 21/12/103
f 106/90/104 99/24/104 98/15/104
f 107/93/105 100/17/105 99/24/105
f 108/95/106 101/23/106 100/17/106
f 9/112/107 105/109/107 10/113/107
f 105/109/108 96/114/108 104/110/108
f 104/110/109 95/115/109 103/111/109
f 103/111/110 94/40/110 102/41/110
f 9/112/111 89/116/111 97/117/111
f 97/117/112 88/118/112 96/114/112
f 96/114/113 87/119/113 95/115/113
f 95/115/114 86/38/114 94/40/114
f 8/120/115 82/84/115 89/116/115
f 82/84/116 88/118/116 89/116/116
f 88/118/117 84/88/117 87/119/117
f 87/119/118 85/36/118 86/38/118
f 19/20/119 81/96/119 5/121/119
f 74/19/120 80/98/120 81/96/120
f 75/21/121 79/99/121 80/98/121
f 79/99/122 77/1/122 78/28/122
f 50/25/123 53/59/123 31/26/123
f 78/28/124 77/1/124 28/3/124
f 10/113/125 11/108/125 14/122/125
f 11/108/126 12/104/126 13/89/126
f 13/89/127 18/91/127 14/122/127
f 11/108/128 13/89/128 14/122/128
f 8/120/129 9/112/129 15/123/129
f 9/112/130 10/113/130 15/123/130
f 7/32/131 8/120/131 16/35/131
f 16/35/132 8/120/132 15/123/132
f 10/113/133 14/122/133 15/123/133
f 17/30/134 5/121/134 6/31/134
f 16/35/135 17/30/135 7/32/135
f 54/8/136 57/62/136 40/33/136
f 19/20/137 5/121/137 17/30/137
f 17/30/138 16/35/138 19/20/138
f 16/35/139 15/123/139 20/14/139
f 15/123/140 14/122/140 21/12/140
f 14/122/141 18/91/141 21/12/141
f 21/12/142 20/14/142 15/123/142
f 85/36/143 2/53/143 1/37/143
f 86/38/144 1/37/144 22/39/144
f 102/41/145 94/40/145 22/39/145
f 101/23/146 109/52/146 27/43/146
f 102/41/147 23/42/147 24/44/147
f 114/46/148 110/45/148 24/44/148
f 118/48/149 114/46/149 25/47/149
f 78/28/150 4/29/150 3/50/150
f 118/48/151 26/49/151 27/43/151
f 122/51/152 3/50/152 2/53/152
f 44/124/153 37/68/153 45/73/153
f 45/73/154 46/72/154 44/124/154
f 46/72/155 47/34/155 42/55/155
f 44/124/156 46/72/156 43/125/156
f 47/34/157 40/33/157 41/54/157
f 42/55/158 43/125/158 46/72/158
f 31/26/159 33/60/159 34/56/159
f 35/66/160 36/71/160 37/68/160
f 44/124/161 43/125/161 42/55/161
f 44/124/162 42/55/162 41/54/162
f 44/124/163 41/54/163 40/33/163
f 37/68/164 44/124/164 40/33/164
f 35/66/165 37/68/165 40/33/165
f 32/27/166 31/26/166 38/58/166
f 31/26/167 34/56/167 38/58/167
f 35/66/168 40/33/168 34/56/168
f 40/33/169 39/57/169 34/56/169
f 53/59/170 49/64/170 33/60/170
f 59/61/171 39/57/171 40/33/171
f 60/63/172 50/25/172 32/27/172
f 49/64/173 63/70/173 34/56/173
f 65/65/174 36/71/174 35/66/174
f 69/11/175 45/73/175 37/68/175
f 60/63/176 38/58/176 39/57/176
f 66/67/177 35/66/177 34/56/177
f 65/65/178 70/69/178 37/68/178
f 69/11/179 73/9/179 46/72/179
f 73/9/180 54/8/180 47/34/180
f 4/29/181 71/79/181 64/74/181
f 64/74/182 71/79/182 70/69/182
f 1/37/183 2/53/183 67/75/183
f 62/76/184 67/75/184 66/67/184
f 26/49/185 25/47/185 61/77/185
f 58/78/186 61/77/186 60/63/186
f 4/29/187 28/3/187 68/10/187
f 68/10/188 69/11/188 70/69/188
f 2/53/189 3/50/189 64/74/189
f 67/75/190 64/74/190 65/65/190
f 1/37/191 62/76/191 48/80/191
f 62/76/192 63/70/192 49/64/192
f 24/44/193 51/81/193 61/77/193
f 51/81/194 50/25/194 60/63/194
f 26/49/195 58/78/195 56/82/195
f 56/82/196 58/78/196 59/61/196
f 23/42/197 22/39/197 48/80/197
f 48/80/198 49/64/198 53/59/198
f 27/43/199 56/82/199 55/6/199
f 55/6/200 56/82/200 57/62/200
f 23/42/201 52/83/201 51/81/201
f 52/83/202 53/59/202 50/25/202
f 6/31/203 125/97/203 82/84/203
f 82/84/204 125/97/204 124/85/204
f 83/86/205 124/85/205 123/87/205
f 84/88/206 123/87/206 122/51/206
f 13/89/207 121/101/207 106/90/207
f 106/90/208 121/101/208 120/92/208
f 107/93/209 120/92/209 119/94/209
f 108/95/210 119/94/210 118/48/210
f 6/31/211 5/121/211 81/96/211
f 125/97/212 81/96/212 80/98/212
f 124/85/213 80/98/213 79/99/213
f 79/99/214 78/28/214 122/51/214
f 13/89/215 12/104/215 117/100/215
f 121/101/216 117/100/216 116/102/216
f 120/92/217 116/102/217 115/103/217
f 119/94/218 115/103/218 114/46/218
f 12/104/219 11/108/219 113/105/219
f 113/105/220 112/106/220 116/102/220
f 112/106/221 111/107/221 115/103/221
f 111/107/222 110/45/222 114/46/222
f 11/108/223 10/113/223 105/109/223
f 113/105/224 105/109/224 104/110/224
f 104/110/225 103/111/225 111/107/225
f 103/111/226 102/41/226 110/45/226
f 18/91/227 106/90/227 98/15/227
f 106/90/228 107/93/228 99/24/228
f 107/93/229 108/95/229 100/17/229
f 108/95/230 109/52/230 101/23/230
f 9/112/231 97/117/231 105/109/231
f 105/109/232 97/117/232 96/114/232
f 104/110/233 96/114/233 95/115/233
f 103/111/234 95/115/234 94/40/234
f 9/112/235 8/120/235 89/116/235
f 97/117/236 89/116/236 88/118/236
f 96/114/237 88/118/237 87/119/237
f 95/115/238 87/119/238 86/38/238
f 8/120/239 7/32/239 82/84/239
f 82/84/240 83/86/240 88/118/240
f 88/118/241 83/86/241 84/88/241
f 87/119/242 84/88/242 85/36/242
f 19/20/243 74/19/243 81/96/243
f 74/19/244 75/21/244 80/98/244
f 75/21/245 76/22/245 79/99/245
f 79/99/246 76/22/246 77/1/246
