# Blender v2.83.3 OBJ File: 'rock1.blend'
# www.blender.org
mtllib rock1.mtl
o Cube
v -0.298177 -0.310459 -0.160204
v -0.352017 -0.120247 -0.201958
v -0.210438 -0.299358 0.167860
v -0.204859 -0.278580 0.267992
v 0.225156 -0.191521 -0.261037
v -0.288246 0.033266 -0.358392
v 0.309820 0.278097 0.176320
v 0.147629 0.335060 0.246793
v -0.361419 0.287563 -0.054421
v 0.305003 -0.229559 0.003823
v 0.181760 0.251308 -0.215491
v -0.213737 0.321783 -0.190543
v -0.014276 0.381451 -0.239546
v 0.073657 0.411768 0.010512
v 0.196756 0.326316 0.078600
v -0.178228 0.362248 0.140403
v -0.003968 0.336439 0.162307
v 0.040951 0.309666 0.338249
v 0.328827 -0.101448 0.285227
v 0.051611 0.025518 0.412219
v 0.071792 0.257038 0.387901
v -0.032318 -0.133976 0.408795
v -0.112144 0.059045 0.356256
v -0.278759 0.060279 0.341387
v -0.199462 0.295015 0.329236
v -0.272324 -0.085332 0.354899
v -0.337780 0.209258 0.229108
v -0.308991 -0.015192 0.203018
v -0.362213 -0.169564 0.134451
v -0.388064 -0.028316 0.093801
v -0.393609 0.009793 -0.011144
v -0.327721 -0.126386 -0.034356
v -0.340644 0.268316 -0.148582
v -0.234339 -0.162698 -0.245109
v -0.014322 -0.294360 -0.354154
v -0.088286 -0.310969 -0.328705
v 0.245007 -0.300925 -0.214145
v -0.067255 -0.384597 -0.123763
v 0.285039 -0.234372 -0.054000
v -0.202129 -0.392115 -0.042119
v 0.222346 -0.376616 -0.031193
v -0.323646 -0.284601 -0.022451
v 0.021613 -0.350623 0.005471
v 0.240485 -0.376453 0.112043
v 0.104030 -0.376771 0.217838
v 0.027665 -0.305916 0.342547
v 0.339421 0.233573 -0.165771
v 0.356931 -0.117471 -0.222875
v 0.334666 0.037526 -0.176631
v 0.344241 0.309572 -0.038438
v 0.413576 -0.105907 -0.052154
v 0.183371 0.385582 -0.084479
v 0.402541 0.199537 -0.008125
v 0.332386 0.154564 0.262317
v 0.342786 -0.158238 0.236380
v -0.183886 0.218052 -0.249291
v -0.138533 0.133480 -0.373483
v -0.168259 -0.196520 -0.319920
v 0.011000 -0.059047 -0.435929
v 0.018533 0.257220 -0.370365
v 0.265087 -0.026968 -0.350463
v 0.121604 0.229152 -0.337714
v 0.080681 0.103923 -0.426321
v 0.228996 0.156271 -0.257699
vt 0.811225 0.500320
vt 0.832835 0.542550
vt 0.750372 0.502578
vt 0.684324 0.498305
vt 0.695526 0.590043
vt 0.595487 0.554071
vt 0.758551 0.541629
vt 0.734560 0.638619
vt 0.814842 0.674961
vt 0.868898 0.626848
vt 0.681400 0.660535
vt 0.612523 0.611030
vt 0.755569 0.686897
vt 0.702815 0.719575
vt 0.828257 0.746119
vt 0.627721 0.709528
vt 0.728330 0.743875
vt 0.573694 0.742031
vt 0.505562 0.860617
vt 0.453103 0.745934
vt 0.593450 0.856216
vt 0.636897 0.837357
vt 0.381765 0.870902
vt 0.452115 0.891228
vt 0.620165 0.863731
vt 0.520395 0.916991
vt 0.466380 0.968747
vt 0.610958 0.947403
vt 0.521595 0.972300
vt 0.369862 0.880766
vt 0.376948 0.968401
vt 0.579717 0.036807
vt 0.502698 0.125633
vt 0.493520 0.093277
vt 0.440564 0.075799
vt 0.452642 0.137550
vt 0.396657 0.129600
vt 0.456022 0.199102
vt 0.595133 0.132728
vt 0.375205 0.166308
vt 0.600856 0.180898
vt 0.555533 0.319259
vt 0.512048 0.271127
vt 0.492079 0.044748
vt 0.440573 0.002567
vt 0.190065 0.502956
vt 0.135549 0.563911
vt 0.154668 0.502876
vt 0.315438 0.472996
vt 0.337239 0.521223
vt 0.259194 0.495547
vt 0.221027 0.586461
vt 0.203601 0.501661
vt 0.389318 0.594899
vt 0.326394 0.671252
vt 0.320842 0.611485
vt 0.254279 0.625952
vt 0.177629 0.609516
vt 0.156646 0.667837
vt 0.125040 0.598194
vt 0.392435 0.633518
vt 0.282271 0.704301
vt 0.411655 0.456686
vt 0.453122 0.536438
vt 0.490445 0.456840
vt 0.518637 0.554009
vt 0.464324 0.610647
vt 0.572591 0.624775
vt 0.430586 0.720688
vt 0.377239 0.207222
vt 0.424747 0.256555
vt 0.425335 0.293537
vt 0.389471 0.335212
vt 0.392166 0.367247
vt 0.591681 0.371643
vt 0.604636 0.288730
vt 0.531456 0.396814
vt 0.481326 0.374924
vt 0.630775 0.409742
vt 0.597928 0.412065
vt 0.587804 0.470889
vt 0.874299 0.564904
vt 0.554688 1.000000
vt 0.421875 1.000000
vt 0.379567 0.067329
vt 0.380013 0.021786
vt 0.618537 0.230662
vt 0.529237 0.000000
vt 0.535156 0.000000
vt 0.613298 0.000047
vt 0.624414 0.075018
vt 0.165292 0.742277
vt 0.255320 0.754516
vt 0.639366 0.478595
vt 0.650412 0.437452
vn -0.3635 0.5872 -0.7232
vn -0.4448 0.3985 -0.8021
vn -0.4487 0.5682 -0.6898
vn 0.3692 0.7858 -0.4963
vn 0.4535 0.7300 -0.5112
vn 0.4409 0.6797 -0.5861
vn 0.3613 0.7642 -0.5343
vn -0.1743 0.9807 -0.0891
vn -0.0855 0.9922 -0.0902
vn 0.1007 0.9828 -0.1546
vn -0.3252 0.9390 -0.1123
vn -0.4332 0.8972 0.0858
vn -0.4287 0.9026 -0.0392
vn 0.3887 0.8757 0.2864
vn 0.3147 0.9423 0.1141
vn 0.3177 0.9230 0.2172
vn 0.4754 0.8538 0.2120
vn -0.0693 0.9073 0.4148
vn 0.0878 0.9191 0.3841
vn -0.0385 0.9413 0.3354
vn 0.3986 0.9097 0.1168
vn -0.6012 0.7626 0.2390
vn -0.1284 0.9607 0.2462
vn 0.3994 0.8957 0.1953
vn 0.0148 0.9663 0.2571
vn -0.0756 0.9827 0.1688
vn 0.4461 0.0662 0.8925
vn 0.4006 -0.0687 0.9137
vn 0.4394 -0.2379 0.8662
vn 0.4507 0.0543 0.8910
vn 0.4852 0.6125 0.6240
vn 0.2777 0.6877 0.6707
vn 0.5053 0.5728 0.6455
vn 0.4249 -0.4040 0.8101
vn 0.3748 -0.2166 0.9015
vn 0.1234 0.7183 0.6847
vn -0.2456 0.0737 0.9666
vn -0.2044 0.1508 0.9672
vn -0.2641 0.1448 0.9536
vn -0.1614 0.1329 0.9779
vn -0.2018 0.0853 0.9757
vn -0.1607 0.0534 0.9856
vn -0.0879 0.0850 0.9925
vn -0.2516 -0.9037 0.3466
vn -0.2255 -0.8999 0.3732
vn -0.5228 -0.7909 0.3182
vn -0.9839 0.1367 0.1151
vn -0.9916 0.1085 -0.0708
vn -0.9833 0.1479 0.1057
vn -0.9593 -0.1556 -0.2358
vn -0.9750 -0.2208 -0.0230
vn -0.9886 -0.1256 -0.0824
vn -0.9260 -0.3298 -0.1837
vn -0.9016 -0.4319 -0.0250
vn -0.9646 -0.2582 0.0531
vn -0.9918 0.0946 -0.0863
vn -0.9559 0.0699 -0.2851
vn -0.9480 -0.2947 -0.1200
vn -0.3345 0.6448 -0.6872
vn -0.3240 0.4126 -0.8514
vn -0.3677 0.2061 -0.9068
vn -0.8097 0.0805 0.5814
vn -0.9163 -0.0409 0.3985
vn -0.9567 0.0223 0.2901
vn -0.4060 -0.2156 -0.8881
vn -0.5762 -0.2587 -0.7753
vn -0.5456 -0.3087 -0.7791
vn 0.4641 -0.3954 -0.7926
vn 0.4363 -0.2864 -0.8530
vn 0.4147 -0.3768 -0.8283
vn 0.1470 -0.9255 -0.3490
vn -0.0508 -0.9333 -0.3554
vn 0.1273 -0.9331 -0.3362
vn -0.0305 -0.9417 -0.3352
vn -0.2326 -0.9025 -0.3624
vn 0.8079 -0.5862 -0.0605
vn 0.8979 -0.4344 -0.0716
vn 0.8424 -0.5334 -0.0758
vn 0.0851 -0.9765 0.1982
vn -0.1120 -0.9898 0.0886
vn 0.0517 -0.9981 0.0348
vn -0.5307 -0.8097 0.2504
vn -0.4823 -0.8288 0.2837
vn -0.6453 -0.7328 0.2160
vn 0.8061 -0.5826 -0.1043
vn 0.1800 -0.9836 0.0112
vn 0.0129 -0.9918 -0.1271
vn -0.0969 -0.9944 -0.0421
vn 0.4689 -0.4396 -0.7661
vn 0.8455 0.1266 -0.5188
vn 0.8216 -0.0514 0.5678
vn 0.7724 -0.6337 -0.0437
vn 0.8800 0.3925 -0.2676
vn 0.9157 0.1762 -0.3612
vn 0.9291 0.1429 -0.3412
vn 0.9118 0.1137 -0.3947
vn 0.9070 0.1616 -0.3888
vn 0.9694 0.0060 0.2453
vn 0.9680 -0.0012 0.2509
vn 0.9689 0.0059 0.2475
vn 0.9688 0.0117 0.2474
vn 0.9645 0.0102 0.2638
vn -0.6489 -0.3322 -0.6846
vn -0.3415 -0.2173 -0.9144
vn -0.2040 0.1999 -0.9583
vn -0.2866 -0.0761 -0.9550
vn -0.1916 0.2670 -0.9444
vn 0.3367 -0.2441 -0.9094
vn 0.4268 -0.3770 -0.8220
vn 0.3179 0.8931 -0.3184
vn 0.3272 -0.0844 -0.9412
vn 0.5669 0.3971 -0.7217
vn 0.5418 0.3074 -0.7823
vn 0.5270 0.4642 -0.7119
vn 0.4843 0.2898 -0.8255
vn -0.3578 0.6307 -0.6886
vn -0.4488 0.8509 -0.2729
vn 0.4276 0.7066 -0.5638
vn 0.4848 -0.5399 0.6881
vn -0.0684 0.6632 0.7454
vn -0.3041 -0.4531 0.8380
vn -0.2992 -0.4581 0.8371
vn -0.3209 -0.4359 0.8409
vn -0.2833 -0.4739 0.8338
vn -0.8412 0.0707 0.5360
vn -0.6671 0.2615 0.6976
vn -0.7371 -0.4740 0.4817
vn -0.6942 -0.6186 0.3680
vn -0.8811 0.0983 0.4625
vn -0.8052 -0.0592 0.5901
vn -0.9665 0.0625 -0.2489
vn -0.4444 -0.4367 -0.7822
vn -0.5911 -0.5194 -0.6171
vn -0.4239 0.3509 -0.8350
vn -0.9461 0.0711 -0.3159
vn -0.6359 0.7287 0.2543
vn 0.1415 -0.9208 -0.3634
vn -0.2130 -0.8761 -0.4326
vn -0.6608 -0.7503 0.0187
vn 0.8511 -0.5139 -0.1072
vn 0.8537 -0.5203 0.0209
vn 0.4962 -0.5886 0.6383
vn 0.4932 -0.5927 0.6368
vn 0.8239 -0.5140 -0.2386
vn 0.4835 0.7435 -0.4620
vn 0.9195 0.2277 -0.3205
vn 0.8085 0.5095 0.2945
vn 0.8477 0.4572 0.2691
vn 0.8876 0.3943 0.2382
vn 0.9322 0.3055 0.1942
vn 0.4877 0.5570 0.6722
vn 0.3787 0.4489 -0.8094
vn 0.5691 0.3084 -0.7622
usemtl 0.084,0.078,0.0780
s 1
f 56/1/1 12/2/2 60/3/3
f 11/4/4 60/3/5 52/5/6
f 11/4/4 52/5/6 47/6/7
f 13/7/8 14/8/9 52/5/10
f 12/2/11 16/9/12 13/7/8
f 12/2/11 9/10/13 16/9/12
f 16/9/12 14/8/9 13/7/8
f 52/5/14 15/11/15 50/12/16
f 14/8/17 15/11/15 52/5/14
f 14/8/18 16/9/19 17/13/20
f 15/11/15 8/14/21 50/12/16
f 14/8/17 8/14/21 15/11/15
f 16/9/12 9/10/13 25/15/22
f 17/13/20 8/14/23 14/8/18
f 50/12/16 8/14/21 7/16/24
f 25/15/25 18/17/26 17/13/20
f 54/18/27 20/19/28 19/20/29
f 54/18/27 21/21/30 20/19/28
f 8/22/31 21/21/32 54/18/33
f 19/20/29 20/19/28 46/23/34
f 46/23/34 20/19/28 22/24/35
f 8/22/31 18/25/36 21/21/32
f 21/21/37 23/26/38 20/19/39
f 20/19/39 26/27/40 22/24/41
f 21/21/37 25/28/42 23/26/38
f 25/28/42 24/29/43 23/26/38
f 23/26/38 24/29/43 26/27/40
f 45/30/44 46/23/45 4/31/46
f 27/32/47 31/33/48 30/34/49
f 29/35/50 32/36/51 42/37/52
f 30/34/53 31/33/54 32/36/51
f 31/33/54 2/38/55 32/36/51
f 31/33/48 9/39/56 2/38/57
f 42/37/52 2/38/55 1/40/58
f 33/41/59 57/42/60 6/43/61
f 27/32/62 28/44/63 26/45/64
f 36/46/65 1/47/66 58/48/67
f 5/49/68 37/50/69 35/51/70
f 37/50/71 38/52/72 35/51/73
f 36/53/74 38/52/72 1/47/75
f 39/54/76 44/55/77 37/50/78
f 38/52/79 41/56/80 43/57/81
f 40/58/82 3/59/83 42/60/84
f 39/54/76 10/61/85 44/55/77
f 40/58/86 43/57/81 45/62/87
f 43/57/81 44/55/88 45/62/87
f 5/63/68 48/64/89 37/50/69
f 47/6/90 48/64/90 61/65/90
f 47/6/91 49/66/91 48/64/91
f 39/54/76 51/67/92 10/61/85
f 50/12/93 53/68/94 47/6/95
f 47/6/95 53/68/94 49/66/96
f 49/66/96 53/68/94 51/67/97
f 51/67/98 53/68/99 54/18/100
f 54/18/100 55/69/101 51/67/98
f 54/18/100 19/20/102 55/69/101
f 1/70/66 34/71/103 58/72/67
f 36/73/65 58/72/67 35/74/104
f 60/75/3 57/42/60 56/76/1
f 63/77/105 59/78/106 57/42/60
f 60/75/107 63/77/105 57/42/60
f 59/78/108 61/65/109 35/74/70
f 11/79/4 62/80/110 60/75/5
f 59/78/108 63/77/111 61/65/109
f 63/77/112 64/81/113 61/65/114
f 61/65/114 64/81/113 47/6/115
f 60/3/3 12/2/2 13/7/116
f 12/2/11 33/82/117 9/10/13
f 52/5/6 60/3/5 13/7/118
f 17/13/20 16/9/19 25/15/25
f 8/14/23 17/13/20 18/17/26
f 55/69/119 19/20/29 46/23/34
f 21/21/32 18/25/36 25/28/120
f 22/24/121 4/31/122 46/23/123
f 20/19/39 23/26/38 26/27/40
f 22/24/121 26/27/124 4/31/122
f 24/29/125 25/28/126 27/83/62
f 4/31/46 26/27/127 29/84/128
f 29/35/129 26/45/64 28/44/63
f 3/85/83 4/86/46 29/35/128
f 27/32/62 30/34/130 28/44/63
f 29/35/129 28/44/63 30/34/130
f 3/85/83 29/35/128 42/37/84
f 29/35/50 30/34/53 32/36/51
f 27/32/47 9/39/56 31/33/48
f 32/36/51 2/38/55 42/37/52
f 2/38/57 9/39/56 33/41/131
f 2/38/132 6/43/133 34/71/103
f 33/41/134 12/87/2 56/76/1
f 2/38/132 34/71/103 1/70/66
f 2/38/57 33/41/131 6/43/135
f 26/88/64 24/89/125 27/32/62
f 25/90/22 9/91/13 27/32/136
f 33/41/59 56/76/1 57/42/60
f 35/51/73 38/52/72 36/53/74
f 37/50/71 41/56/137 38/52/72
f 1/47/75 38/52/72 40/58/138
f 1/47/139 40/58/82 42/60/84
f 37/50/78 44/55/77 41/56/140
f 43/57/81 41/56/80 44/55/88
f 38/52/79 43/57/81 40/58/86
f 40/58/82 45/62/44 3/59/83
f 10/61/85 55/69/141 44/55/77
f 3/59/83 45/62/44 4/92/46
f 45/62/142 44/55/143 46/93/34
f 46/93/34 44/55/143 55/69/119
f 5/63/68 61/65/109 48/64/89
f 37/50/78 48/64/144 51/67/92
f 37/50/78 51/67/92 39/54/76
f 47/6/7 52/5/6 50/12/145
f 48/64/146 49/66/96 51/67/97
f 51/67/92 55/69/141 10/61/85
f 53/68/147 50/12/148 54/18/149
f 54/18/149 50/12/148 7/16/150
f 54/18/33 7/16/151 8/22/31
f 6/43/133 58/72/67 34/71/103
f 6/43/61 57/42/60 59/78/106
f 6/43/61 59/78/106 58/72/67
f 35/74/104 58/72/67 59/78/106
f 63/77/112 60/75/152 62/80/153
f 63/77/112 62/80/153 64/81/113
f 35/74/70 61/65/109 5/63/68
f 64/81/113 62/80/153 47/94/115
f 62/80/110 11/95/4 47/94/7
