# Blender v2.91.0 OBJ File: 'rightear.blend'
# www.blender.org
mtllib tail.mtl
o Sphere_Sphere.110
v 9.529186 0.887687 7.571797
v 9.514322 0.879356 7.575509
v 9.481094 0.859478 7.581775
v 9.446429 0.841171 7.608687
v 9.430717 0.812545 7.614820
v 9.426573 0.799058 7.616076
v 9.411740 0.750841 7.618937
v 9.407926 0.729299 7.615216
v 9.413255 0.706241 7.609469
v 9.417977 0.666637 7.610637
v 9.446608 0.638207 7.597252
v 9.453203 0.614110 7.597774
v 9.476086 0.595606 7.591568
v 9.503613 0.581225 7.580408
v 9.526496 0.568702 7.577227
v 9.544336 0.876628 7.539292
v 9.523666 0.870840 7.519021
v 9.495136 0.864354 7.497883
v 9.475636 0.845478 7.495397
v 9.470192 0.819667 7.478604
v 9.443707 0.792432 7.462135
v 9.443364 0.749453 7.469563
v 9.440051 0.733848 7.458548
v 9.443408 0.692786 7.454893
v 9.458156 0.670209 7.451315
v 9.462711 0.642070 7.475092
v 9.476213 0.616751 7.487536
v 9.501283 0.603573 7.511323
v 9.516289 0.585269 7.523768
v 9.538557 0.570216 7.535929
v 9.567535 0.886566 7.532781
v 9.582052 0.875795 7.506702
v 9.575250 0.852074 7.471464
v 9.573893 0.847510 7.447167
v 9.590504 0.814036 7.433182
v 9.585783 0.793152 7.418344
v 9.594062 0.758729 7.408219
v 9.597350 0.725910 7.413798
v 9.598427 0.693899 7.408497
v 9.590981 0.667815 7.418521
v 9.576407 0.648002 7.427418
v 9.584035 0.615819 7.452321
v 9.583213 0.584718 7.469693
v 9.563177 0.583064 7.496076
v 9.570090 0.578522 7.521682
v 9.590055 0.892632 7.548437
v 9.617225 0.876725 7.553147
v 9.650462 0.870315 7.540020
v 9.668230 0.846021 7.527951
v 9.684996 0.822668 7.511832
v 9.707468 0.793688 7.509326
v 9.707559 0.770678 7.517024
v 9.717822 0.720404 7.505267
v 9.708160 0.696328 7.504933
v 9.688128 0.666810 7.521212
v 9.696913 0.649397 7.519486
v 9.670228 0.615721 7.526920
v 9.645078 0.596987 7.543488
v 9.618949 0.580890 7.544787
v 9.595698 0.564268 7.554476
v 9.568444 0.884422 7.561203
v 9.576650 0.897508 7.576837
v 9.603790 0.875172 7.596343
v 9.624925 0.852138 7.618097
v 9.646641 0.845595 7.627267
v 9.657153 0.816665 7.660324
v 9.668282 0.789252 7.662258
v 9.668814 0.757896 7.665871
v 9.674460 0.733609 7.669616
v 9.667253 0.697338 7.664081
v 9.663448 0.662583 7.658113
v 9.668156 0.629027 7.649327
v 9.640903 0.616511 7.634755
v 9.632116 0.597403 7.619611
v 9.609601 0.585459 7.608409
v 9.573322 0.571699 7.588760
v 9.562861 0.568714 7.571146
v 9.550516 0.897726 7.600394
v 9.555493 0.879028 7.628055
v 9.536215 0.865310 7.651286
v 9.547326 0.837708 7.668509
v 9.533678 0.819322 7.693030
v 9.520431 0.794143 7.697257
v 9.527475 0.760878 7.716083
v 9.534536 0.724391 7.724284
v 9.539185 0.700022 7.727808
v 9.525847 0.662167 7.709505
v 9.541735 0.641936 7.680240
v 9.540603 0.617935 7.671551
v 9.536042 0.597347 7.646600
v 9.550106 0.582090 7.624906
v 9.540412 0.570010 7.594996
vt 0.666667 0.625000
vt 0.500000 0.687500
vt 0.500000 0.625000
vt 0.666667 0.125000
vt 0.500000 0.187500
vt 0.500000 0.125000
vt 0.500000 0.562500
vt 0.666667 0.562500
vt 0.666667 0.062500
vt 0.500000 0.062500
vt 0.666667 0.500000
vt 0.500000 0.500000
vt 0.666667 0.937500
vt 0.583333 1.000000
vt 0.500000 0.937500
vt 0.583333 0.000000
vt 0.666667 0.437500
vt 0.500000 0.437500
vt 0.666667 0.875000
vt 0.500000 0.875000
vt 0.666667 0.375000
vt 0.500000 0.375000
vt 0.666667 0.812500
vt 0.500000 0.812500
vt 0.500000 0.312500
vt 0.666667 0.312500
vt 0.500000 0.750000
vt 0.666667 0.750000
vt 0.500000 0.250000
vt 0.666667 0.250000
vt 0.666667 0.687500
vt 0.666667 0.187500
vt 0.333333 0.750000
vt 0.333333 0.687500
vt 0.333333 0.250000
vt 0.333333 0.187500
vt 0.333333 0.625000
vt 0.333333 0.125000
vt 0.333333 0.562500
vt 0.333333 0.062500
vt 0.333333 0.500000
vt 0.416666 1.000000
vt 0.333333 0.937500
vt 0.416666 0.000000
vt 0.333333 0.437500
vt 0.333333 0.875000
vt 0.333333 0.375000
vt 0.333333 0.812500
vt 0.333333 0.312500
vt 0.166667 0.437500
vt 0.166667 0.937500
vt 0.166667 0.875000
vt 0.166667 0.375000
vt 0.166667 0.812500
vt 0.166667 0.312500
vt 0.166667 0.750000
vt 0.166667 0.250000
vt 0.166667 0.687500
vt 0.166667 0.187500
vt 0.166667 0.625000
vt 0.166667 0.125000
vt 0.166667 0.562500
vt 0.166667 0.062500
vt 0.166667 0.500000
vt 0.250000 1.000000
vt 0.250000 0.000000
vt 0.000000 0.250000
vt 0.000000 0.187500
vt 0.000000 0.625000
vt 0.000000 0.125000
vt 0.000000 0.562500
vt 0.000000 0.062500
vt 0.000000 0.500000
vt 0.083333 1.000000
vt 0.000000 0.937500
vt 0.083334 0.000000
vt 0.000000 0.437500
vt 0.000000 0.875000
vt 0.000000 0.375000
vt 0.000000 0.812500
vt 0.000000 0.312500
vt 0.000000 0.750000
vt 0.000000 0.687500
vt 1.000000 0.875000
vt 0.833333 0.937500
vt 0.833333 0.875000
vt 1.000000 0.375000
vt 0.833333 0.437500
vt 0.833333 0.375000
vt 1.000000 0.812500
vt 0.833333 0.812500
vt 0.833333 0.312500
vt 1.000000 0.312500
vt 0.833333 0.750000
vt 1.000000 0.750000
vt 1.000000 0.250000
vt 0.833333 0.250000
vt 1.000000 0.687500
vt 0.833333 0.687500
vt 1.000000 0.187500
vt 0.833333 0.187500
vt 1.000000 0.625000
vt 0.833333 0.625000
vt 1.000000 0.125000
vt 0.833333 0.125000
vt 0.833333 0.562500
vt 1.000000 0.562500
vt 1.000000 0.062500
vt 0.833333 0.062500
vt 0.833333 0.500000
vt 1.000000 0.500000
vt 1.000000 0.937500
vt 0.916667 1.000000
vt 0.916667 0.000000
vt 1.000000 0.437500
vt 0.750000 1.000000
vt 0.750000 0.000000
vn -0.6797 0.7257 -0.1069
vn -0.6849 -0.6997 -0.2032
vn -0.9395 0.2771 -0.2015
vn -0.4850 -0.8572 -0.1731
vn -0.9283 0.3248 -0.1809
vn -0.0094 0.9453 -0.3260
vn -0.0061 -0.9992 -0.0384
vn -0.9805 -0.0636 -0.1857
vn -0.1114 0.9798 -0.1662
vn -0.8321 -0.5085 -0.2213
vn -0.2339 0.9721 0.0174
vn -0.7268 -0.6768 -0.1172
vn -0.5262 0.8440 -0.1036
vn -0.9433 -0.2626 -0.2032
vn -0.9047 0.3495 -0.2439
vn -0.6486 -0.7100 -0.2742
vn -0.3360 0.2163 -0.9167
vn -0.4862 -0.4163 -0.7683
vn -0.2255 0.6553 -0.7209
vn -0.3812 -0.7128 -0.5887
vn -0.3804 0.1756 -0.9080
vn 0.1575 -0.9642 -0.2136
vn -0.2775 -0.1880 -0.9422
vn -0.3730 0.9242 0.0817
vn 0.1804 -0.9695 -0.1659
vn -0.2846 0.1473 -0.9473
vn -0.1171 0.9801 -0.1605
vn -0.2343 -0.2897 -0.9280
vn 0.0339 0.9417 -0.3348
vn -0.2659 -0.6470 -0.7147
vn -0.3891 0.5036 -0.7714
vn -0.2463 -0.6290 -0.7374
vn 0.6513 0.1452 -0.7448
vn 0.5133 0.7572 -0.4039
vn 0.6549 -0.4266 -0.6237
vn 0.3375 0.7494 -0.5696
vn 0.5642 0.3584 -0.7438
vn 0.1790 0.9651 -0.1913
vn 0.5395 -0.5652 -0.6241
vn 0.4181 0.6999 -0.5791
vn 0.4668 -0.8482 -0.2504
vn 0.5481 0.3986 -0.7354
vn 0.0095 -0.9984 -0.0554
vn 0.6862 -0.2283 -0.6907
vn 0.3068 -0.7617 -0.5707
vn 0.5862 0.2960 -0.7542
vn -0.3116 0.9467 0.0814
vn -0.2409 -0.9447 -0.2225
vn 0.8492 -0.5072 0.1474
vn 0.7804 0.5864 0.2170
vn 0.5245 -0.8403 0.1374
vn 0.9658 0.0459 0.2553
vn 0.1800 -0.9304 0.3192
vn 0.9602 0.1394 0.2421
vn -0.5145 0.7710 -0.3752
vn -0.0372 -0.9814 0.1884
vn 0.9012 -0.3649 0.2340
vn 0.4739 0.8623 0.1784
vn 0.9757 -0.1363 0.1717
vn 0.2958 0.9045 0.3073
vn 0.8726 0.4146 0.2583
vn 0.8347 0.5192 0.1837
vn 0.3673 -0.9240 0.1067
vn 0.8417 0.5097 0.1784
vn 0.3739 0.7982 0.4723
vn 0.3044 -0.4994 0.8111
vn 0.3489 0.6512 0.6740
vn 0.2105 -0.2199 0.9526
vn 0.0991 0.9059 0.4118
vn 0.3202 -0.3358 0.8858
vn 0.1891 0.7322 0.6543
vn 0.1713 -0.7750 0.6082
vn 0.2315 0.0414 0.9720
vn 0.2221 -0.7240 0.6531
vn 0.3347 0.1135 0.9355
vn 0.1124 -0.9335 0.3406
vn 0.3423 0.2204 0.9134
vn -0.4026 0.7949 -0.4540
vn 0.0742 -0.9896 0.1236
vn 0.4391 0.2100 0.8735
vn -0.6238 0.2604 0.7370
vn -0.3466 -0.8581 0.3788
vn -0.6319 0.2760 0.7243
vn -0.4037 -0.8334 0.3775
vn -0.6510 0.0443 0.7577
vn -0.0091 0.9456 -0.3252
vn 0.0112 -0.9978 0.0647
vn -0.6852 -0.0254 0.7279
vn -0.6408 0.5776 0.5057
vn -0.6758 -0.0589 0.7347
vn -0.4513 0.8449 0.2870
vn -0.3257 -0.8512 0.4116
vn -0.4750 0.3203 0.8196
vn -0.6330 -0.1569 0.7581
vn -0.5575 0.4548 0.6945
vn -0.4507 -0.7297 0.5142
vn -0.9305 0.2620 -0.2560
vn -0.5253 -0.8147 -0.2458
vn -0.9939 -0.0112 -0.1101
vn -0.4912 -0.8541 -0.1709
vn -0.9572 0.2048 -0.2045
vn -0.9640 -0.1723 -0.2027
vn -0.5169 0.7077 -0.4817
vn -0.9761 -0.1217 -0.1798
vn -0.5308 0.8207 -0.2115
vn -0.9076 -0.3469 -0.2367
vn -0.6888 0.7213 -0.0734
vn -0.8476 -0.5149 -0.1280
vn -0.8754 0.4358 -0.2091
vn -0.3850 -0.9172 -0.1023
vn -0.3744 0.5599 -0.7392
vn -0.1296 -0.9189 -0.3725
vn -0.2585 0.5977 -0.7589
vn -0.3697 -0.8666 -0.3351
vn -0.2900 -0.1607 -0.9434
vn -0.3109 -0.8316 -0.4602
vn -0.3354 0.5897 -0.7347
vn -0.2701 0.0634 -0.9607
vn -0.4547 0.7050 -0.5443
vn -0.2863 -0.0353 -0.9575
vn -0.1813 0.8317 -0.5248
vn -0.2364 -0.2480 -0.9395
vn 0.0877 0.9781 -0.1886
vn -0.2999 -0.5448 -0.7831
vn 0.5830 -0.2231 -0.7813
vn 0.0119 0.9265 -0.3761
vn 0.5076 -0.6539 -0.5611
vn 0.1398 0.9822 -0.1256
vn 0.5526 -0.6440 -0.5290
vn 0.4312 0.6342 -0.6418
vn 0.5529 -0.4240 -0.7173
vn 0.5525 0.5396 -0.6353
vn 0.5988 -0.4026 -0.6924
vn 0.5364 0.4762 -0.6968
vn 0.4940 -0.8242 -0.2771
vn 0.5588 0.3548 -0.7495
vn 0.1466 -0.9664 -0.2110
vn 0.6939 -0.0525 -0.7181
vn 0.6627 -0.7256 0.1855
vn 0.9059 0.3808 0.1853
vn 0.4361 -0.8964 0.0792
vn 0.9644 0.0873 0.2496
vn 0.6149 -0.7750 0.1460
vn 0.9297 0.2568 0.2641
vn 0.9371 -0.2267 0.2655
vn 0.5721 0.8096 0.1311
vn 0.8594 -0.4597 0.2238
vn 0.6087 0.7632 0.2168
vn 0.9796 0.0904 0.1794
vn 0.1688 0.9464 0.2755
vn 0.7897 -0.6083 0.0795
vn 0.8547 0.4839 0.1879
vn 0.3813 0.8259 0.4153
vn 0.4333 -0.1984 0.8791
vn 0.3761 0.7948 0.4762
vn 0.2401 -0.7327 0.6368
vn 0.3578 0.5937 0.7207
vn 0.0600 -0.8099 0.5834
vn 0.1927 0.7680 0.6108
vn 0.2476 -0.6691 0.7007
vn 0.2557 0.1710 0.9515
vn 0.1566 -0.8164 0.5558
vn 0.2136 0.5150 0.8301
vn 0.1525 -0.9195 0.3623
vn 0.3276 0.2671 0.9063
vn 0.3677 -0.2113 0.9056
vn -0.5669 0.4175 0.7102
vn -0.3102 -0.8775 0.3657
vn -0.6284 0.2373 0.7409
vn -0.4194 -0.7864 0.4535
vn -0.6418 -0.0188 0.7666
vn -0.6251 -0.3217 0.7112
vn -0.4789 0.8765 0.0495
vn -0.6836 -0.1081 0.7218
vn -0.3285 0.9071 0.2630
vn -0.4842 -0.7210 0.4957
vn -0.3383 0.9214 0.1910
vn -0.6334 -0.2368 0.7367
vn -0.2580 0.8364 0.4836
vn -0.4853 -0.6288 0.6075
usemtl 0.8,0.8,0.001
s off
f 6/1/1 20/2/1 21/3/1
f 14/4/2 28/5/2 29/6/2
f 6/1/3 22/7/3 7/8/3
f 15/9/4 29/6/4 30/10/4
f 8/11/5 22/7/5 23/12/5
f 1/13/6 61/14/6 16/15/6
f 77/16/7 15/9/7 30/10/7
f 9/17/8 23/12/8 24/18/8
f 2/19/9 16/15/9 17/20/9
f 10/21/10 24/18/10 25/22/10
f 3/23/11 17/20/11 18/24/11
f 10/21/12 26/25/12 11/26/12
f 3/23/13 19/27/13 4/28/13
f 11/26/14 27/29/14 12/30/14
f 5/31/15 19/27/15 20/2/15
f 12/30/16 28/5/16 13/32/16
f 20/2/17 34/33/17 35/34/17
f 28/5/18 42/35/18 43/36/18
f 20/2/19 36/37/19 21/3/19
f 28/5/20 44/38/20 29/6/20
f 22/7/21 36/37/21 37/39/21
f 30/10/22 44/38/22 45/40/22
f 23/12/23 37/39/23 38/41/23
f 16/15/24 61/42/24 31/43/24
f 77/44/25 30/10/25 45/40/25
f 24/18/26 38/41/26 39/45/26
f 16/15/27 32/46/27 17/20/27
f 25/22/28 39/45/28 40/47/28
f 17/20/29 33/48/29 18/24/29
f 25/22/30 41/49/30 26/25/30
f 18/24/31 34/33/31 19/27/31
f 27/29/32 41/49/32 42/35/32
f 38/41/33 54/50/33 39/45/33
f 32/46/34 46/51/34 47/52/34
f 39/45/35 55/53/35 40/47/35
f 32/46/36 48/54/36 33/48/36
f 41/49/37 55/53/37 56/55/37
f 33/48/38 49/56/38 34/33/38
f 42/35/39 56/55/39 57/57/39
f 35/34/40 49/56/40 50/58/40
f 43/36/41 57/57/41 58/59/41
f 35/34/42 51/60/42 36/37/42
f 43/36/43 59/61/43 44/38/43
f 37/39/44 51/60/44 52/62/44
f 45/40/45 59/61/45 60/63/45
f 38/41/46 52/62/46 53/64/46
f 31/43/47 61/65/47 46/51/47
f 77/66/48 45/40/48 60/63/48
f 58/59/49 73/67/49 74/68/49
f 50/58/50 67/69/50 51/60/50
f 58/59/51 75/70/51 59/61/51
f 52/62/52 67/69/52 68/71/52
f 60/63/53 75/70/53 76/72/53
f 52/62/54 69/73/54 53/64/54
f 46/51/55 61/74/55 62/75/55
f 77/76/56 60/63/56 76/72/56
f 53/64/57 70/77/57 54/50/57
f 46/51/58 63/78/58 47/52/58
f 55/53/59 70/77/59 71/79/59
f 47/52/60 64/80/60 48/54/60
f 55/53/61 72/81/61 56/55/61
f 48/54/62 65/82/62 49/56/62
f 57/57/63 72/81/63 73/67/63
f 50/58/64 65/82/64 66/83/64
f 63/84/65 78/85/65 79/86/65
f 71/87/66 86/88/66 87/89/66
f 64/90/67 79/86/67 80/91/67
f 71/87/68 88/92/68 72/93/68
f 64/90/69 81/94/69 65/95/69
f 73/96/70 88/92/70 89/97/70
f 66/98/71 81/94/71 82/99/71
f 74/100/72 89/97/72 90/101/72
f 67/102/73 82/99/73 83/103/73
f 75/104/74 90/101/74 91/105/74
f 67/102/75 84/106/75 68/107/75
f 76/108/76 91/105/76 92/109/76
f 68/107/77 85/110/77 69/111/77
f 62/112/78 61/113/78 78/85/78
f 77/114/79 76/108/79 92/109/79
f 70/115/80 85/110/80 86/88/80
f 83/103/81 5/31/81 6/1/81
f 90/101/82 14/4/82 91/105/82
f 83/103/83 7/8/83 84/106/83
f 92/109/84 14/4/84 15/9/84
f 84/106/85 8/11/85 85/110/85
f 78/85/86 61/116/86 1/13/86
f 77/117/87 92/109/87 15/9/87
f 85/110/88 9/17/88 86/88/88
f 78/85/89 2/19/89 79/86/89
f 87/89/90 9/17/90 10/21/90
f 80/91/91 2/19/91 3/23/91
f 87/89/92 11/26/92 88/92/92
f 80/91/93 4/28/93 81/94/93
f 89/97/94 11/26/94 12/30/94
f 82/99/95 4/28/95 5/31/95
f 90/101/96 12/30/96 13/32/96
f 6/1/97 5/31/97 20/2/97
f 14/4/98 13/32/98 28/5/98
f 6/1/99 21/3/99 22/7/99
f 15/9/100 14/4/100 29/6/100
f 8/11/101 7/8/101 22/7/101
f 9/17/102 8/11/102 23/12/102
f 2/19/103 1/13/103 16/15/103
f 10/21/104 9/17/104 24/18/104
f 3/23/105 2/19/105 17/20/105
f 10/21/106 25/22/106 26/25/106
f 3/23/107 18/24/107 19/27/107
f 11/26/108 26/25/108 27/29/108
f 5/31/109 4/28/109 19/27/109
f 12/30/110 27/29/110 28/5/110
f 20/2/111 19/27/111 34/33/111
f 28/5/112 27/29/112 42/35/112
f 20/2/113 35/34/113 36/37/113
f 28/5/114 43/36/114 44/38/114
f 22/7/115 21/3/115 36/37/115
f 30/10/116 29/6/116 44/38/116
f 23/12/117 22/7/117 37/39/117
f 24/18/118 23/12/118 38/41/118
f 16/15/119 31/43/119 32/46/119
f 25/22/120 24/18/120 39/45/120
f 17/20/121 32/46/121 33/48/121
f 25/22/122 40/47/122 41/49/122
f 18/24/123 33/48/123 34/33/123
f 27/29/124 26/25/124 41/49/124
f 38/41/125 53/64/125 54/50/125
f 32/46/126 31/43/126 46/51/126
f 39/45/127 54/50/127 55/53/127
f 32/46/128 47/52/128 48/54/128
f 41/49/129 40/47/129 55/53/129
f 33/48/130 48/54/130 49/56/130
f 42/35/131 41/49/131 56/55/131
f 35/34/132 34/33/132 49/56/132
f 43/36/133 42/35/133 57/57/133
f 35/34/134 50/58/134 51/60/134
f 43/36/135 58/59/135 59/61/135
f 37/39/136 36/37/136 51/60/136
f 45/40/137 44/38/137 59/61/137
f 38/41/138 37/39/138 52/62/138
f 58/59/139 57/57/139 73/67/139
f 50/58/140 66/83/140 67/69/140
f 58/59/141 74/68/141 75/70/141
f 52/62/142 51/60/142 67/69/142
f 60/63/143 59/61/143 75/70/143
f 52/62/144 68/71/144 69/73/144
f 53/64/145 69/73/145 70/77/145
f 46/51/146 62/75/146 63/78/146
f 55/53/147 54/50/147 70/77/147
f 47/52/148 63/78/148 64/80/148
f 55/53/149 71/79/149 72/81/149
f 48/54/150 64/80/150 65/82/150
f 57/57/151 56/55/151 72/81/151
f 50/58/152 49/56/152 65/82/152
f 63/84/153 62/112/153 78/85/153
f 71/87/154 70/115/154 86/88/154
f 64/90/155 63/84/155 79/86/155
f 71/87/156 87/89/156 88/92/156
f 64/90/157 80/91/157 81/94/157
f 73/96/158 72/93/158 88/92/158
f 66/98/159 65/95/159 81/94/159
f 74/100/160 73/96/160 89/97/160
f 67/102/161 66/98/161 82/99/161
f 75/104/162 74/100/162 90/101/162
f 67/102/163 83/103/163 84/106/163
f 76/108/164 75/104/164 91/105/164
f 68/107/165 84/106/165 85/110/165
f 70/115/166 69/111/166 85/110/166
f 83/103/167 82/99/167 5/31/167
f 90/101/168 13/32/168 14/4/168
f 83/103/169 6/1/169 7/8/169
f 92/109/170 91/105/170 14/4/170
f 84/106/171 7/8/171 8/11/171
f 85/110/172 8/11/172 9/17/172
f 78/85/173 1/13/173 2/19/173
f 87/89/174 86/88/174 9/17/174
f 80/91/175 79/86/175 2/19/175
f 87/89/176 10/21/176 11/26/176
f 80/91/177 3/23/177 4/28/177
f 89/97/178 88/92/178 11/26/178
f 82/99/179 81/94/179 4/28/179
f 90/101/180 89/97/180 12/30/180
