# Blender v2.83.0 OBJ File: 'tent.blend'
# www.blender.org
mtllib tent.mtl
o peg_Cone
v -8.198358 1.601659 2.425634
v -8.245688 1.571516 2.361991
v -8.327179 1.577288 2.384906
v -8.247683 1.156808 2.616452
v -8.330213 1.610999 2.462711
v -8.250596 1.626061 2.487882
vt 0.250000 0.490000
vt 0.250000 0.250000
vt 0.478254 0.324164
vt 0.391068 0.055836
vt 0.108932 0.055836
vt 0.021746 0.324164
vt 0.978254 0.324164
vt 0.891068 0.055836
vt 0.608932 0.055836
vt 0.521746 0.324164
vt 0.750000 0.490000
vn 0.8283 -0.2959 -0.4758
vn -0.2668 -0.5031 -0.8220
vn -0.9853 -0.1675 0.0341
vn -0.3343 0.2471 0.9095
vn 0.7865 0.1677 0.5943
vn -0.0472 0.9159 -0.3987
usemtl 0.423,0.125,0.036
s off
f 1/1/1 4/2/1 2/3/1
f 2/3/2 4/2/2 3/4/2
f 3/4/3 4/2/3 5/5/3
f 5/5/4 4/2/4 6/6/4
f 6/6/5 4/2/5 1/1/5
f 2/7/6 3/8/6 5/9/6
f 6/10/6 1/11/6 5/9/6
f 1/11/6 2/7/6 5/9/6
o peg.001_Cone.006
v -10.619336 1.628157 5.268477
v -10.667606 1.642276 5.200142
v -10.746486 1.616620 5.218005
v -10.584270 1.174090 5.097215
v -10.746964 1.586645 5.297379
v -10.668382 1.593775 5.328573
vt 0.250000 0.490000
vt 0.250000 0.250000
vt 0.478254 0.324164
vt 0.391068 0.055836
vt 0.108932 0.055836
vt 0.021746 0.324164
vt 0.978254 0.324164
vt 0.891068 0.055836
vt 0.608932 0.055836
vt 0.521746 0.324164
vt 0.750000 0.490000
vn 0.8133 0.2593 -0.5209
vn -0.2676 0.1612 -0.9500
vn -0.9421 -0.3117 -0.1234
vn -0.2782 -0.5059 0.8165
vn 0.8067 -0.1530 0.5708
vn -0.2192 0.9132 0.3435
usemtl 0.423,0.125,0.036
s off
f 7/12/7 10/13/7 8/14/7
f 8/14/8 10/13/8 9/15/8
f 9/15/9 10/13/9 11/16/9
f 11/16/10 10/13/10 12/17/10
f 12/17/11 10/13/11 7/12/11
f 8/18/12 9/19/12 11/20/12
f 12/21/12 7/22/12 11/20/12
f 7/22/12 8/18/12 11/20/12
o peg.002_Cone.005
v -9.040583 1.682967 5.975381
v -9.088853 1.697086 5.907046
v -9.167732 1.671431 5.924908
v -9.005517 1.228901 5.804119
v -9.168211 1.641455 6.004283
v -9.089628 1.648585 6.035477
vt 0.250000 0.490000
vt 0.250000 0.250000
vt 0.478254 0.324164
vt 0.391068 0.055836
vt 0.108932 0.055836
vt 0.021746 0.324164
vt 0.978254 0.324164
vt 0.891068 0.055836
vt 0.608932 0.055836
vt 0.521746 0.324164
vt 0.750000 0.490000
vn 0.8133 0.2593 -0.5209
vn -0.2676 0.1612 -0.9500
vn -0.9421 -0.3117 -0.1234
vn -0.2782 -0.5059 0.8165
vn 0.8067 -0.1530 0.5708
vn -0.2192 0.9132 0.3435
usemtl 0.423,0.125,0.036
s off
f 13/23/13 16/24/13 14/25/13
f 14/25/14 16/24/14 15/26/14
f 15/26/15 16/24/15 17/27/15
f 17/27/16 16/24/16 18/28/16
f 18/28/17 16/24/17 13/23/17
f 14/29/18 15/30/18 17/31/18
f 18/32/18 13/33/18 17/31/18
f 13/33/18 14/29/18 17/31/18
o peg.003_Cone.004
v -12.315552 1.697693 5.255419
v -12.363822 1.711812 5.187083
v -12.442701 1.686157 5.204946
v -12.280486 1.243627 5.084157
v -12.443180 1.656181 5.284321
v -12.364597 1.663311 5.315515
vt 0.250000 0.490000
vt 0.250000 0.250000
vt 0.478254 0.324164
vt 0.391068 0.055836
vt 0.108932 0.055836
vt 0.021746 0.324164
vt 0.978254 0.324164
vt 0.891068 0.055836
vt 0.608932 0.055836
vt 0.521746 0.324164
vt 0.750000 0.490000
vn 0.8133 0.2593 -0.5209
vn -0.2676 0.1612 -0.9500
vn -0.9421 -0.3117 -0.1234
vn -0.2782 -0.5059 0.8165
vn 0.8067 -0.1530 0.5708
vn -0.2192 0.9132 0.3435
usemtl 0.423,0.125,0.036
s off
f 19/34/19 22/35/19 20/36/19
f 20/36/20 22/35/20 21/37/20
f 21/37/21 22/35/21 23/38/21
f 23/38/22 22/35/22 24/39/22
f 24/39/23 22/35/23 19/34/23
f 20/40/24 21/41/24 23/42/24
f 24/43/24 19/44/24 23/42/24
f 19/44/24 20/40/24 23/42/24
o peg.004_Cone.003
v -11.706206 1.638126 1.642517
v -11.753537 1.607983 1.578874
v -11.835028 1.613755 1.601790
v -11.755531 1.193275 1.833336
v -11.838061 1.647466 1.679594
v -11.758445 1.662528 1.704765
vt 0.250000 0.490000
vt 0.250000 0.250000
vt 0.478254 0.324164
vt 0.391068 0.055836
vt 0.108932 0.055836
vt 0.021746 0.324164
vt 0.978254 0.324164
vt 0.891068 0.055836
vt 0.608932 0.055836
vt 0.521746 0.324164
vt 0.750000 0.490000
vn 0.8283 -0.2959 -0.4758
vn -0.2668 -0.5031 -0.8220
vn -0.9853 -0.1675 0.0341
vn -0.3343 0.2471 0.9095
vn 0.7865 0.1677 0.5943
vn -0.0472 0.9159 -0.3987
usemtl 0.423,0.125,0.036
s off
f 25/45/25 28/46/25 26/47/25
f 26/47/26 28/46/26 27/48/26
f 27/48/27 28/46/27 29/49/27
f 29/49/28 28/46/28 30/50/28
f 30/50/29 28/46/29 25/45/29
f 26/51/30 27/52/30 29/53/30
f 30/54/30 25/55/30 29/53/30
f 25/55/30 26/51/30 29/53/30
o peg.005_Cone.002
v -9.958522 1.638526 2.377859
v -10.005853 1.608383 2.314217
v -10.087343 1.614156 2.337132
v -10.007847 1.193676 2.568678
v -10.090377 1.647867 2.414937
v -10.010760 1.662928 2.440108
vt 0.250000 0.490000
vt 0.250000 0.250000
vt 0.478254 0.324164
vt 0.391068 0.055836
vt 0.108932 0.055836
vt 0.021746 0.324164
vt 0.978254 0.324164
vt 0.891068 0.055836
vt 0.608932 0.055836
vt 0.521746 0.324164
vt 0.750000 0.490000
vn 0.8283 -0.2959 -0.4758
vn -0.2668 -0.5031 -0.8220
vn -0.9853 -0.1675 0.0341
vn -0.3343 0.2471 0.9095
vn 0.7865 0.1677 0.5943
vn -0.0472 0.9159 -0.3987
usemtl 0.423,0.125,0.036
s off
f 31/56/31 34/57/31 32/58/31
f 32/58/32 34/57/32 33/59/32
f 33/59/33 34/57/33 35/60/33
f 35/60/34 34/57/34 36/61/34
f 36/61/35 34/57/35 31/56/35
f 32/62/36 33/63/36 35/64/36
f 36/65/36 31/66/36 35/64/36
f 31/66/36 32/62/36 35/64/36
o stick_Cylinder
v -6.262055 1.016126 3.391777
v -8.718388 4.227198 3.999854
v -6.219949 1.030094 3.446346
v -8.676281 4.241165 4.054422
v -6.268735 1.005082 3.490392
v -8.725067 4.216153 4.098469
v -6.310841 0.991115 3.435823
v -8.767174 4.202187 4.043900
vt 1.000000 0.500000
vt 0.750000 1.000000
vt 0.750000 0.500000
vt 0.500000 0.500000
vt 0.490000 0.250000
vt 0.010000 0.250000
vt 0.250000 0.010000
vt 0.500000 1.000000
vt 0.250000 0.500000
vt 0.000000 1.000000
vt 0.000000 0.500000
vt 0.990000 0.250000
vt 0.510000 0.250000
vt 0.750000 0.490000
vt 1.000000 1.000000
vt 0.250000 0.490000
vt 0.250000 1.000000
vt 0.750000 0.010000
vn 0.5822 0.5574 -0.5919
vn 0.5599 0.2807 0.7796
vn -0.4004 0.9133 0.0752
vn -0.5822 -0.5574 0.5919
vn -0.5599 -0.2807 -0.7796
vn 0.4004 -0.9133 -0.0752
vn -0.4003 0.9133 0.0752
usemtl 0.423,0.125,0.036
s off
f 37/67/37 40/68/37 39/69/37
f 40/68/38 41/70/38 39/69/38
f 40/71/39 44/72/39 42/73/39
f 42/74/40 43/75/40 41/70/40
f 43/75/41 38/76/41 37/77/41
f 39/78/42 43/79/42 37/80/42
f 37/67/37 38/81/37 40/68/37
f 40/68/38 42/74/38 41/70/38
f 40/71/43 38/82/43 44/72/43
f 42/74/40 44/83/40 43/75/40
f 43/75/41 44/83/41 38/76/41
f 39/78/42 41/84/42 43/79/42
o tent_Cube.002
v -8.640403 4.245807 4.006764
v -8.077648 1.002842 2.495997
v -8.707669 4.247394 4.305727
v -8.977359 1.021910 5.979136
v -11.900326 4.340492 3.342114
v -11.854609 1.018111 1.700967
v -11.936711 4.341351 3.503829
v -12.566446 1.036576 5.260969
v -8.674036 4.246600 4.156246
v -8.872307 1.063550 4.755672
v -8.640403 4.245807 4.006764
v -8.077648 1.002842 2.495997
v -8.674036 4.246600 4.156246
v -8.526619 1.046099 3.503013
v -8.518859 2.515652 3.347641
v -12.006907 2.536769 4.283441
v -8.887354 2.524348 4.985403
v -11.638412 2.528073 2.645679
v -8.793692 2.494241 4.622155
v -8.518859 2.515652 3.347641
v -8.610404 2.526728 3.674892
v -9.145275 1.007555 2.365592
v -10.018256 1.012294 2.469904
v -10.762423 1.013994 2.001701
v -9.490191 4.249713 4.041813
v -10.283519 4.171083 3.876700
v -11.107338 4.256152 3.677923
v -11.490134 1.031168 5.235991
v -10.649899 1.027202 5.277214
v -9.872987 1.024729 5.599881
v -11.070952 4.255293 3.516208
v -10.247133 4.170225 3.714985
v -9.453805 4.248854 3.880099
v -10.846465 2.524683 2.767579
v -10.097959 2.522318 3.082540
v -9.279737 2.518308 3.087665
v -9.676340 2.527668 4.850348
v -10.424378 2.530022 4.533304
v -11.246439 2.534123 4.545246
v -8.641661 4.230379 4.012695
v -8.079145 0.988347 2.503898
v -8.715515 4.236316 4.296216
v -8.983335 1.014489 5.965572
v -11.892360 4.329348 3.351447
v -11.848022 1.009377 1.713420
v -11.925606 4.330108 3.498827
v -12.556827 1.026788 5.251675
v -8.690207 4.246737 4.152606
v -8.888781 1.063669 4.753836
v -8.653158 4.235620 4.003884
v -8.085516 0.988655 2.492593
v -8.690202 4.247021 4.152606
v -8.541884 1.045499 3.496582
v -8.521783 2.501673 3.356055
v -11.993550 2.530217 4.276131
v -8.897159 2.519241 4.973053
v -11.629749 2.521514 2.658196
v -8.809738 2.494494 4.618011
v -8.530369 2.504253 3.344126
v -8.626370 2.526892 3.670443
v -9.145674 1.000661 2.380661
v -10.021317 1.005601 2.484756
v -10.768015 1.006413 2.015340
v -9.487343 4.235455 4.033854
v -10.281612 4.157260 3.867754
v -11.106610 4.242121 3.669127
v -11.489282 1.023279 5.221438
v -10.646873 1.019763 5.262713
v -9.867286 1.017177 5.586272
v -11.074198 4.241552 3.524892
v -10.249145 4.156486 3.724036
v -9.454731 4.234769 3.888788
v -10.850747 2.517916 2.782091
v -10.100898 2.515990 3.097575
v -9.281964 2.511227 3.102486
v -9.671906 2.520309 4.836172
v -10.421487 2.523128 4.518510
v -11.243917 2.526918 4.530532
vt 0.500000 0.750000
vt 0.375000 0.750000
vt 0.500000 0.750000
vt 0.500000 0.500000
vt 0.625000 0.500000
vt 0.500000 0.500000
vt 0.500000 0.500000
vt 0.375000 0.500000
vt 0.375000 0.500000
vt 0.375000 0.500000
vt 0.625000 0.750000
vt 0.625000 0.750000
vt 0.500000 0.437500
vt 0.375000 0.437500
vt 0.375000 0.000000
vt 0.500000 0.250000
vt 0.375000 0.250000
vt 0.375000 0.937500
vt 0.500000 1.000000
vt 0.375000 1.000000
vt 0.375000 0.750000
vt 0.500000 0.812500
vt 0.375000 0.812500
vt 0.500000 0.875000
vt 0.375000 0.875000
vt 0.500000 0.937500
vt 0.375000 0.312500
vt 0.500000 0.312500
vt 0.375000 0.375000
vt 0.500000 0.375000
vt 0.625000 0.500000
vt 0.625000 0.500000
vt 0.500000 0.000000
vt 0.500000 0.750000
vt 0.500000 0.750000
vt 0.375000 0.750000
vt 0.500000 0.500000
vt 0.500000 0.500000
vt 0.625000 0.500000
vt 0.500000 0.500000
vt 0.375000 0.500000
vt 0.375000 0.500000
vt 0.375000 0.500000
vt 0.625000 0.750000
vt 0.625000 0.750000
vt 0.500000 0.437500
vt 0.375000 0.437500
vt 0.375000 0.000000
vt 0.375000 0.250000
vt 0.500000 0.250000
vt 0.375000 0.937500
vt 0.375000 1.000000
vt 0.500000 1.000000
vt 0.375000 0.750000
vt 0.375000 0.812500
vt 0.500000 0.812500
vt 0.375000 0.875000
vt 0.500000 0.875000
vt 0.500000 0.937500
vt 0.375000 0.312500
vt 0.500000 0.312500
vt 0.375000 0.375000
vt 0.500000 0.375000
vt 0.625000 0.500000
vt 0.625000 0.500000
vt 0.500000 0.000000
vt 0.875000 0.500000
vt 0.812500 0.750000
vt 0.812500 0.500000
vt 0.625000 0.937500
vt 0.625000 0.000000
vt 0.625000 0.312500
vt 0.625000 0.375000
vt 0.625000 0.875000
vt 0.687500 0.750000
vt 0.750000 0.500000
vt 0.687500 0.500000
vt 0.750000 0.750000
vt 0.875000 0.750000
vt 0.625000 1.000000
vt 0.625000 0.250000
vt 0.625000 0.437500
vt 0.625000 0.812500
vt 0.875000 0.500000
vt 0.812500 0.500000
vt 0.812500 0.750000
vt 0.625000 0.937500
vt 0.625000 0.000000
vt 0.625000 0.312500
vt 0.625000 0.375000
vt 0.625000 0.875000
vt 0.687500 0.750000
vt 0.750000 0.500000
vt 0.687500 0.500000
vt 0.750000 0.750000
vt 0.875000 0.750000
vt 0.625000 1.000000
vt 0.625000 0.250000
vt 0.625000 0.437500
vt 0.625000 0.812500
vn 0.9673 -0.0296 0.2519
vn 0.0000 0.0000 1.0000
vn 0.9621 -0.0354 0.2703
vn 0.9133 0.0381 0.4055
vn 0.9756 -0.0082 0.2195
vn 0.1110 0.4366 -0.8928
vn -0.9479 0.2551 -0.1909
vn 0.0222 0.5400 0.8414
vn -0.3461 0.4546 0.8207
vn -0.3398 0.4577 0.8216
vn -0.0424 0.4229 0.9052
vn 0.2329 0.4916 -0.8391
vn 0.4848 0.4168 -0.7690
vn -0.1083 0.3688 -0.9232
vn 0.9963 -0.0032 0.0854
vn 0.9753 -0.0254 0.2196
vn 0.9630 0.0233 0.2686
vn 0.9683 -0.0024 0.2499
vn 0.2756 0.5313 -0.8011
vn -0.9526 0.2149 -0.2155
vn -0.2913 0.4381 0.8504
vn -0.1384 0.5521 0.8222
vn -0.3464 0.4546 0.8206
vn 0.0152 0.4417 0.8970
vn 0.1375 0.4540 -0.8804
vn 0.3618 0.3668 -0.8571
vn 0.0078 0.4318 -0.9019
vn -0.9700 0.0307 -0.2410
vn 0.8097 0.2582 -0.5269
vn -0.9578 0.0405 -0.2846
vn -0.9105 -0.0359 -0.4119
vn 0.7760 0.4663 -0.4246
vn -0.9849 0.0215 -0.1720
vn -0.1082 -0.4366 0.8931
vn 0.9476 -0.2562 0.1911
vn -0.0256 -0.5374 -0.8430
vn 0.3501 -0.4543 -0.8192
vn 0.3395 -0.4577 -0.8217
vn 0.0426 -0.4229 -0.9052
vn -0.2359 -0.4902 0.8391
vn -0.4841 -0.4168 0.7694
vn 0.1077 -0.3689 0.9232
vn -0.9970 0.0059 -0.0776
vn 0.6630 0.3056 -0.6834
vn -0.9693 0.0324 -0.2439
vn -0.9595 -0.0218 -0.2808
vn 0.7604 0.4730 -0.4450
vn -0.9708 0.0082 -0.2396
vn -0.2740 -0.5315 0.8015
vn 0.9521 -0.2170 0.2153
vn 0.2871 -0.4382 -0.8518
vn 0.1445 -0.5506 -0.8222
vn 0.3461 -0.4546 -0.8207
vn -0.0151 -0.4418 -0.8970
vn -0.1420 -0.4540 0.8796
vn -0.3616 -0.3668 0.8571
vn -0.0079 -0.4317 0.9020
vn -0.7731 -0.6160 -0.1514
vn 0.1690 -0.7627 -0.6243
vn -0.2328 -0.8063 0.5437
vn 0.2472 -0.1035 -0.9634
vn -0.7307 0.6617 -0.1679
vn -0.0027 -0.9992 -0.0408
vn -0.8154 0.3398 0.4688
vn 0.4637 -0.3506 -0.8137
vn -0.3808 -0.1278 0.9158
vn 0.7681 -0.5166 0.3784
vn 0.0259 0.9997 0.0005
vn 0.2096 -0.2643 -0.9414
vn -0.2611 -0.2695 0.9269
vn 0.0466 -0.9089 -0.4145
vn -0.0550 -0.9060 -0.4196
vn 0.2448 -0.8866 -0.3924
vn 0.0106 -0.8788 0.4771
vn -0.0259 -0.8917 0.4520
vn -0.1772 -0.8901 0.4198
vn -0.6894 -0.7117 -0.1346
vn 0.1216 -0.8879 -0.4436
vn -0.1820 -0.8901 0.4178
vn 0.1095 -0.0999 -0.9889
vn -0.0076 0.9974 0.0710
vn 0.7404 -0.6709 0.0407
vn -0.2674 -0.1274 0.9551
vn 0.0178 -0.9985 0.0508
vn -0.5820 0.7869 -0.2053
vn 0.2373 -0.2647 -0.9347
vn -0.2182 -0.2705 0.9377
vn 0.0949 -0.4839 -0.8699
vn -0.0547 -0.9075 -0.4165
vn 0.2260 -0.9047 -0.3611
vn 0.0136 -0.6815 0.7317
vn -0.0275 -0.8795 0.4752
vn -0.1771 -0.8902 0.4197
vn 0.0987 0.9950 0.0169
vn -0.2894 0.4491 0.8453
vn -0.9741 -0.0567 -0.2189
vn 0.3030 0.3578 -0.8833
vn 0.1406 0.4084 -0.9019
vn 0.3625 0.3624 -0.8587
vn 0.0076 0.3589 -0.9333
vn -0.1548 0.3764 0.9134
vn -0.3611 0.3730 0.8547
vn 0.0153 0.3703 0.9288
vn 0.0044 1.0000 -0.0043
vn -0.0932 0.9953 -0.0263
vn -0.1493 0.3970 0.9056
vn 0.1409 0.4239 -0.8947
vn 0.2272 0.3777 -0.8976
vn 0.2537 0.4116 -0.8754
vn 0.1441 0.4239 -0.8942
vn -0.2870 0.4324 0.8548
vn -0.2246 0.4339 0.8725
vn -0.1644 0.4543 0.8756
vn -0.0932 0.9953 -0.0262
vn -0.1027 -0.9945 -0.0192
vn 0.2855 -0.4483 -0.8471
vn 0.9741 0.0577 0.2187
vn -0.2996 -0.3569 0.8848
vn -0.1453 -0.4074 0.9016
vn -0.3625 -0.3609 0.8593
vn -0.0077 -0.3573 0.9339
vn 0.1607 -0.3766 -0.9123
vn 0.3611 -0.3715 -0.8553
vn -0.0153 -0.3688 -0.9294
vn -0.0055 -0.9998 0.0195
vn 0.0928 -0.9954 0.0256
vn -0.0983 -0.9950 -0.0168
vn -0.1031 -0.9945 -0.0181
vn 0.1458 -0.3969 -0.9062
vn 0.9739 0.0573 0.2194
vn -0.1388 -0.4225 0.8957
vn -0.2306 -0.3774 0.8969
vn -0.2537 -0.4104 0.8759
vn -0.1439 -0.4226 0.8948
vn 0.2909 -0.4309 -0.8542
vn 0.2252 -0.4326 -0.8730
vn 0.1643 -0.4532 -0.8761
vn -0.0059 -1.0000 0.0034
vn 0.0925 -0.9954 0.0263
vn -0.0982 -0.9950 -0.0181
vn 0.9676 0.0179 0.2517
vn 0.7307 -0.6617 0.1679
usemtl 0.175,0.012,0.001
s off
f 61/85/44 54/86/44 63/87/44
f 59/88/45 55/89/45 64/90/45
f 55/89/46 65/91/46 64/90/46
f 64/90/47 58/92/47 56/93/47
f 46/94/45 64/90/45 56/93/45
f 47/95/48 63/87/48 53/96/48
f 80/97/49 46/94/49 66/98/49
f 52/99/50 62/100/50 50/101/50
f 72/102/51 60/103/51 52/104/51
f 48/105/52 81/106/52 74/107/52
f 74/107/53 82/108/53 73/109/53
f 73/109/54 83/110/54 72/102/54
f 62/100/55 68/111/55 50/101/55
f 78/112/56 67/113/56 68/111/56
f 79/114/57 66/98/57 67/113/57
f 61/85/58 48/105/58 54/86/58
f 59/88/45 45/115/45 55/89/45
f 55/89/59 57/116/59 65/91/59
f 64/90/60 65/91/60 58/92/60
f 46/94/45 59/88/45 64/90/45
f 47/95/61 61/85/61 63/87/61
f 80/97/62 59/88/62 46/94/62
f 52/99/63 60/117/63 62/100/63
f 72/102/64 83/110/64 60/103/64
f 48/105/65 61/85/65 81/106/65
f 74/107/66 81/106/66 82/108/66
f 73/109/67 82/108/67 83/110/67
f 62/100/68 78/112/68 68/111/68
f 78/112/69 79/114/69 67/113/69
f 79/114/70 80/97/70 66/98/70
f 100/118/71 102/119/71 93/120/71
f 98/121/72 103/122/72 94/123/72
f 94/123/73 103/122/73 104/124/73
f 103/122/74 95/125/74 97/126/74
f 85/127/75 95/125/75 103/122/75
f 86/128/76 92/129/76 102/119/76
f 119/130/77 105/131/77 85/127/77
f 91/132/78 89/133/78 101/134/78
f 111/135/79 91/136/79 99/137/79
f 87/138/80 113/139/80 120/140/80
f 113/139/81 112/141/81 121/142/81
f 112/141/82 111/135/82 122/143/82
f 101/134/83 89/133/83 107/144/83
f 117/145/84 107/144/84 106/146/84
f 118/147/85 106/146/85 105/131/85
f 100/118/86 93/120/86 87/138/86
f 98/121/87 94/123/87 84/148/87
f 94/123/88 104/124/88 96/149/88
f 103/122/89 97/126/89 104/124/89
f 85/127/90 103/122/90 98/121/90
f 86/128/91 102/119/91 100/118/91
f 119/130/92 85/127/92 98/121/92
f 91/132/93 101/134/93 99/150/93
f 111/135/94 99/137/94 122/143/94
f 87/138/95 120/140/95 100/118/95
f 113/139/96 121/142/96 120/140/96
f 112/141/97 122/143/97 121/142/97
f 101/134/98 107/144/98 117/145/98
f 117/145/99 106/146/99 118/147/99
f 118/147/100 105/131/100 119/130/100
f 50/101/101 91/132/101 52/99/101
f 68/111/102 89/133/102 50/101/102
f 74/107/103 87/138/103 48/105/103
f 54/86/104 102/119/104 63/87/104
f 53/96/105 86/128/105 47/95/105
f 54/86/106 87/138/106 93/120/106
f 46/94/107 95/125/107 85/127/107
f 55/89/108 84/148/108 94/123/108
f 65/91/109 97/126/109 58/92/109
f 56/93/110 97/126/110 95/125/110
f 55/89/111 96/149/111 57/116/111
f 53/96/112 102/119/112 92/129/112
f 65/91/113 96/149/113 104/124/113
f 46/94/114 105/131/114 66/98/114
f 67/113/115 105/131/115 106/146/115
f 67/113/116 107/144/116 68/111/116
f 72/102/117 91/136/117 111/135/117
f 73/109/118 111/135/118 112/141/118
f 73/109/119 113/139/119 74/107/119
f 50/101/120 89/133/120 91/132/120
f 68/111/121 107/144/121 89/133/121
f 74/107/122 113/139/122 87/138/122
f 54/86/123 93/120/123 102/119/123
f 53/96/124 92/129/124 86/128/124
f 54/86/125 48/105/125 87/138/125
f 46/94/45 56/93/45 95/125/45
f 55/89/45 45/115/45 84/148/45
f 65/91/126 104/124/126 97/126/126
f 56/93/127 58/92/127 97/126/127
f 55/89/128 94/123/128 96/149/128
f 53/96/129 63/87/129 102/119/129
f 65/91/130 57/116/130 96/149/130
f 46/94/131 85/127/131 105/131/131
f 67/113/132 66/98/132 105/131/132
f 67/113/133 106/146/133 107/144/133
f 72/102/134 52/104/134 91/136/134
f 73/109/135 72/102/135 111/135/135
f 73/109/136 112/141/136 113/139/136
usemtl 0.913,0.434,0.032
f 49/151/137 71/152/137 75/153/137
f 71/154/138 60/103/138 83/110/138
f 51/155/139 62/100/139 60/117/139
f 80/97/140 45/115/140 59/88/140
f 62/100/141 75/156/141 78/112/141
f 78/112/142 76/157/142 79/114/142
f 76/157/143 80/97/143 79/114/143
f 47/95/144 81/106/144 61/85/144
f 81/106/145 70/158/145 82/108/145
f 70/158/146 83/110/146 82/108/146
f 45/115/147 69/159/147 47/95/147
f 76/160/148 69/159/148 77/161/148
f 76/160/137 71/152/137 70/162/137
f 49/151/137 51/163/137 71/152/137
f 71/154/149 51/164/149 60/103/149
f 51/155/139 49/165/139 62/100/139
f 80/97/150 77/166/150 45/115/150
f 62/100/151 49/165/151 75/156/151
f 78/112/152 75/156/152 76/157/152
f 76/157/153 77/166/153 80/97/153
f 47/95/154 69/167/154 81/106/154
f 81/106/155 69/167/155 70/158/155
f 70/158/156 71/154/156 83/110/156
f 45/115/147 77/161/147 69/159/147
f 76/160/157 70/162/157 69/159/157
f 76/160/137 75/153/137 71/152/137
f 88/168/158 114/169/158 110/170/158
f 110/171/159 122/143/159 99/137/159
f 90/172/160 99/150/160 101/134/160
f 119/130/161 98/121/161 84/148/161
f 101/134/162 117/145/162 114/173/162
f 117/145/163 118/147/163 115/174/163
f 115/174/164 118/147/164 119/130/164
f 86/128/165 100/118/165 120/140/165
f 120/140/166 121/142/166 109/175/166
f 109/175/167 121/142/167 122/143/167
f 84/148/168 86/128/168 108/176/168
f 115/177/169 116/178/169 108/176/169
f 115/177/170 109/179/170 110/170/170
f 88/168/171 110/170/171 90/180/171
f 110/171/172 99/137/172 90/181/172
f 90/172/173 101/134/173 88/182/173
f 119/130/174 84/148/174 116/183/174
f 101/134/175 114/173/175 88/182/175
f 117/145/176 115/174/176 114/173/176
f 115/174/177 119/130/177 116/183/177
f 86/128/178 120/140/178 108/184/178
f 120/140/179 109/175/179 108/184/179
f 109/175/180 122/143/180 110/171/180
f 84/148/181 108/176/181 116/178/181
f 115/177/182 108/176/182 109/179/182
f 115/177/183 110/170/183 114/169/183
f 45/115/184 86/128/184 84/148/184
f 45/115/185 47/95/185 86/128/185
